<svg xmlns="http://www.w3.org/2000/svg" viewBox="0 0 500 500"><circle cx="250" cy="250" r="250" fill="#598b42"/><path fill="#598b42" d="M135.6 27.7c-5.2 10-10.3 20.1-14.4 30.5 4.1-10.4 9.1-20.5 14.4-30.5ZM355.6 308.7l.9.9c.5.9 1 1.9 1.5 2.8-.5-.9-1-1.9-1.5-2.8-.3-.2-.6-.6-.9-.9ZM390.4 319.4c-1.1-.5-2.1-1-3.2-1.4-.8-.3-1.5-.6-2.3-.9.8.3 1.5.6 2.3.9 1.1.5 2.2.9 3.2 1.4ZM312.6 203.9c1.9-1.8 3.7-3.7 5.6-5.5-1.9 1.8-3.7 3.7-5.6 5.5l-3.3.6 3.3-.6ZM115.9 74c.4-1.5.9-3 1.3-4.5-.5 1.5-.9 3-1.3 4.5ZM292.1 201.8c.3.4.5.8.8 1.1.4 1.5.8 2.9 1.3 4.4-.4-1.5-.8-2.9-1.3-4.4-.2-.4-.5-.8-.8-1.1ZM340.2 302v4.6-4.6c2.2.3 4.5.8 6.7 1-2.2-.1-4.4-.7-6.7-1-.1-1.4.2-2.1.7-2.5-.5.4-.8 1.2-.7 2.5ZM118.7 64.9l2.1-5.7-2.1 5.7ZM202.8 368.6c.4-.1.9-.2 1.3-.2-.4 0-.8 0-1.3.2ZM358.7 313.8c-.3-.5-.5-.9-.8-1.4.2.5.5.9.8 1.4ZM225.9 191.7c.3-.5.6-1.1.8-1.6-.3.6-.6 1.1-.8 1.6h.5-.5ZM165.9 280.5c0 .3-.1.5-.2.8 0-.3.1-.5.2-.8ZM260.3 188.7c-.3 1-.5 1.9-.8 2.8-.6 2-1.3 3.9-1.9 5.9.6-2 1.3-3.9 1.9-5.9.2-.9.5-1.9.8-2.8ZM293.1 220.7c.4.2.8.3 1.2.5.8.3 1.6.7 2.4 1.1-.8-.4-1.6-.7-2.4-1.1-.4-.2-.8-.3-1.2-.5ZM201.9 368.9l.9-.3c-.3 0-.6.2-.9.3ZM171.6 345.3c1.3-1.6 2.6-3.2 3.9-4.9 1.5-1.3 2.9-2.5 4.4-3.8-1.5 1.3-2.9 2.5-4.4 3.8-1.3 1.6-2.6 3.2-3.9 4.9ZM201.4 369.1c-1.1.2-2.1.4-3.2.5 1.1-.2 2.1-.4 3.2-.5.2 0 .3-.1.5-.2-.2 0-.3.1-.5.2ZM167.4 316.1c-1.9 1.2-3.8 2.5-5.7 3.7 1.9-1.2 3.8-2.5 5.7-3.7 1.4-.6 2.8-1.4 4.2-1.1-1.4-.3-2.8.5-4.2 1.1ZM165.7 281.3l-.3 1.2c-1.1.3-2.2.6-3.4.9 1.1-.3 2.2-.6 3.4-.9.1 0 .3 0 .4-.1-.1 0-.3 0-.4.1l.3-1.2ZM325.2 220.6c2.5-1.2 5.1-2.2 7.7-3.2-2.6 1-5.2 2.1-7.7 3.2ZM360.3 210.5h-.2.2ZM356.9 210.9c.6 0 1.1-.2 1.7-.2-.6 0-1.1.2-1.7.2ZM231.3 265.7h-.3.3ZM355.6 211.1c.4 0 .8-.1 1.3-.2-.4 0-.8.1-1.3.2ZM353.9 211.4c.4 0 .7-.1 1.1-.2-.4 0-.8.1-1.1.2ZM343.1 94.6c.2.4.4.8.5 1.2-.2-.4-.4-.8-.5-1.2ZM333.5 217.1c6.4-2.4 13-4.3 19.8-5.6-6.8 1.3-13.4 3.1-19.8 5.6ZM341.5 89.1c0 .2.1.4.2.5 0-.2-.1-.4-.2-.5ZM349.3 124.5c.1.5.3 1 .4 1.5-.1-.5-.3-1-.4-1.5ZM363.3 210.2c1.6-.2 3.1-.3 4.7-.4-1.6.1-3.1.3-4.7.4ZM361.5 210.4h.6-.6ZM364 104.4c.2-.7.5-1.4.7-2.1-.2.7-.5 1.4-.7 2.1ZM384.1 85c.8 2.9 1.4 5.9 2.1 8.9-.6-3-1.3-5.9-2.1-8.9ZM364.7 102.3c.2-.7.5-1.4.7-2.1-.2.7-.5 1.4-.7 2.1ZM391.5 157.3c-.5-21.3-1-42.7-5.3-63.4 4.2 20.7 4.7 42.1 5.3 63.4ZM351.5 224.1c5.1-.6 10.1-.7 15.2-.9-5.1.1-10.2.3-15.2.9ZM361.4 111.6c.3-.7.5-1.4.8-2.1-.2.7-.5 1.4-.8 2.1ZM317.3 224.5c1.6-.8 3.1-1.6 4.7-2.4-1.6.8-3.2 1.6-4.7 2.4ZM370.1 223.2h1.3-1.3ZM235.3 223.2c-3.9.7-7.8 1.6-11.8 2.3-2 .7-4 1.5-6.1 2.1 2-.6 4-1.4 6.1-2.1 3.9-.8 7.8-1.6 11.8-2.3ZM231.6 212.3c.7-.3 1.3-.5 2-.8-.7.2-1.3.5-2 .8ZM371.9 96.1c-.5 1.9-1 3.8-1.6 5.6.6-1.9 1.1-3.7 1.6-5.6ZM391.4 158.9l-1.2.6 1.2-.6ZM147.2 112.8c0-.4-.2-.7-.2-1.1 0-.1 0-.2-.1-.3 0 .1 0 .2.1.3 0 .4.2.7.2 1.1ZM240.9 87.9c.2.4.4.7.6 1.1-.2-.4-.4-.7-.6-1.1ZM375.8 64c.3 1.1.5 2.2.8 3.2-.6 5.9-1.3 11.7-2.2 17.4 1-5.8 1.7-11.6 2.2-17.4-.3-1.1-.5-2.2-.8-3.2ZM193.4 80.6c-.5 1.4-1.1 2.8-1.6 4.2-.1 1.3-.5 2.7-.5 4 0-1.3.4-2.7.5-4 .5-1.4 1.1-2.8 1.6-4.2ZM240.9 87.9c-1.1-1.6-2.2-3.2-3.2-4.9 1 1.7 2.1 3.2 3.2 4.9ZM180.6 67.1c-1.7 3.4-3.5 6.8-5.2 10.1 1.7-3.4 3.5-6.8 5.2-10.1ZM256.3 77.3c-.4 1.6-.7 3-1 4.3-.6 1.9-1.3 3.9-1.9 5.8.6-1.9 1.3-3.9 1.9-5.8.3-1.4.6-2.8 1-4.3ZM216.3 282.3c.2-.6.6-1.1 1-1.6-.4.5-.8 1.1-1 1.6ZM215.3 75.5c.8-1.6 1.6-3.2 2.4-4.9-.8 1.7-1.6 3.3-2.4 4.9-.6.7-1.2 1.4-1.7 2.1.5-.8 1.1-1.4 1.7-2.1ZM311.8 127c4.3-4.2 7.7-9.2 10.8-14.3-3.1 5.2-6.4 10.1-10.8 14.3-1.3.3-2-.2-2.6-.9.6.7 1.3 1.1 2.6.9ZM342.2 92.3l-.6-1.8.6 1.8ZM340.9 87.4c-.3-.6-.6-1.1-1-1.9.4.7.7 1.3 1 1.9Z"/><path fill="#598b42" d="M387.5 152.7c.4 2 1.5 3.5 4 4.6v1.6-1.6c-2.5-1.1-3.6-2.6-4-4.6ZM348.9 124.5c-.4-2.8-.7-5.7-1.1-8.5.4 2.8.7 5.7 1.1 8.5ZM343.1 94.6c-.4-.8-.7-1.6-1-2.4.3.8.7 1.6 1 2.4ZM194.4 118.3c0-.4-.1-.7-.2-1.1-.3-.9-.6-1.8-.9-2.8.3.9.6 1.8.9 2.8 0 .4.1.7.2 1.1ZM288.6 86.2c0 .1-.2.3-.2.4-.6.8-1.2 1.6-1.8 2.3.6-.8 1.2-1.6 1.8-2.3 0-.1.2-.3.2-.4ZM198.2 121.1c3.6-6.2 7.3-12.4 10.9-18.7-3.6 6.3-7.2 12.5-10.9 18.7-1.3.4-2.2.4-2.8-.1.6.5 1.5.5 2.8.1ZM225.4 69.5c-.6 1.8-1.3 3.6-1.9 5.3-.3.6-.5 1.3-.8 1.9.3-.6.5-1.3.8-1.9.6-1.8 1.3-3.6 1.9-5.3ZM242.1 90.1c0 .3.2.5.2.8 0-.3-.2-.5-.2-.8ZM222.8 215.9c.3-.1.7-.3 1-.4-.3.1-.7.3-1 .4ZM260.3 188.7c.1-.5.3-1 .4-1.6-.1.5-.3 1.1-.4 1.6ZM393.5 321.1c.7.4 1.3.8 2 1.3-.6-.5-1.3-.9-2-1.3ZM241.5 88.9c.2.4.4.7.6 1.1-.2-.4-.4-.7-.6-1.1ZM167.6 281.8c-.3 0-.6.2-1 .3.3 0 .6-.2 1-.3ZM225.8 214.7c.3-.1.5-.2.8-.3-.3.1-.5.2-.8.3ZM215.9 284.5v-1.1c0 .4-.1.7 0 1.1ZM218.2 281.4c.1.1.2.2.4.3-.1 0-.2-.2-.4-.3ZM360.6 113.7c-1.9 4.7-4.2 9.3-7.4 13.4-.8 0-1.6-.2-2.4-.3.8 0 1.6.2 2.4.3 3.2-4.2 5.5-8.7 7.4-13.4ZM228.9 213.5c.4-.2.7-.3 1.1-.5-.4.2-.7.3-1.1.5ZM391.4 319.9c.7.4 1.4.7 2 1.1-.7-.4-1.4-.8-2-1.1ZM412.2 355.6c.2.2.3.4.5.6-.1-.2-.3-.4-.5-.6ZM315.1 116.7c.2-.2.3-.5.5-.7l1.6-1.6c-.5.5-1 1.1-1.6 1.6-.2.2-.3.5-.5.7ZM303.5 100.3c.3-1.2.6-2.3.8-3.5-.3 1.2-.6 2.3-.8 3.5 0 1.2-.4 2.6-.4 3.8 0-1.2.3-2.5.4-3.8ZM314.1 118.2c-.3.5-.6 1-1 1.6.3-.6.7-1.1 1-1.6ZM380.3 336.7c-4.6.4-9.1.8-13.7 1.2-6.2.5-12.5 1-18.7 1.5 6.2-.5 12.5-1 18.7-1.5 4.6-.4 9.1-.8 13.7-1.2ZM406.7 366.8c-5 .3-9.9.6-14.9.9 5-.3 9.9-.6 14.9-.9ZM380.8 336.6c1.8-.2 3.6-.3 5.3-.5-1.8.2-3.6.4-5.3.5ZM412.2 355.6c-1.2-1.3-3.5-2.1-5.4-2.5-1.2-.2-2.4-.6-3.6-.7 1.2.1 2.4.5 3.6.7 2 .4 4.2 1.2 5.4 2.5ZM346.9 302.9h1.1-1.1ZM423 244.5l-.3.3.3-.3ZM250.4 179h-2.2c-1.9-.1-3.7-.3-5.6-.4 1.9.1 3.7.3 5.6.4h2.2ZM357.9 196.4c1.2-.8 2.6-1.8 4-2.7 1-.5 2-1 3-1.4-1 .4-2 .9-3 1.4-1.4 1-2.8 1.9-4 2.7ZM197.1 177.3H196c-2-.2-4.1-.3-6.1-.5 2 .2 4.1.3 6.1.5h1.1ZM242.7 178.5c-.9 0-1.9 0-2.8-.1-10.2-.2-20.4-.3-30.6-.5 10.2.2 20.4.3 30.6.5.9 0 1.9 0 2.8.1ZM189.9 176.8h-1.7c-5.3-.6-10.6-1.2-15.9-1.7 5.3.6 10.6 1.2 15.9 1.7h1.7ZM403.3 197.8c1.1-.8 2.3-1.5 3.4-2.3-1.1.8-2.3 1.5-3.4 2.3-.2.2-.4.3-.6.5.2-.2.4-.3.6-.5Z"/><path fill="#598b42" d="M403.3 197.8c-.2.2-.4.3-.6.5.2-.2.4-.3.6-.5ZM334.3 198.4c.6-.1 1.1-.5 1.8-1 3.7-2.3 7.3-4.6 11-6.8-3.7 2.2-7.3 4.5-11 6.8-.6.6-1.2.9-1.8 1ZM376 189c1.5 1.7 2.9 3.4 4.4 5.1-1.5-1.7-2.9-3.4-4.4-5.1ZM288.8 85.9c.1-.2.3-.5.5-.8-.2.3-.4.6-.5.8ZM209.3 177.9h-2.8l-9.5-.5 9.5.5h2.8ZM136.5 38.7c0 2.4 0 4.7.1 7.1 0-2.4 0-4.7-.1-7.1ZM401.6 373.6c-1.9.3-3.7.7-5.5 1-5.4.7-10.9 1.6-16.3 2.2 5.4-.6 10.9-1.5 16.3-2.2 1.8-.3 3.6-.7 5.5-1ZM254.5 194.7c.5-1.8 1.1-3.7 1.6-5.6.3-1 .6-2.1.8-3.1-.2 1.1-.6 2.1-.8 3.1-.6 1.9-1.1 3.8-1.6 5.6ZM293 194.3c0-.1.2-.2.3-.3 0 0 .2-.2.3-.2-.1 0-.2.2-.3.2 0 .1-.2.2-.3.3ZM310.8 199.9c.6-.7 1.1-1.4 1.6-2 3.1-2.8 6.3-5.5 9.4-8.3-3.1 2.8-6.3 5.5-9.4 8.3-.5.6-1 1.3-1.6 2ZM308.3 124.7c0 .2.2.3.3.5 0-.2-.2-.3-.3-.5ZM333.7 198.5ZM309 125.9s0 .1.1.2c0 0 0-.1-.1-.2ZM169 174.6c-.3 0-.6 0-.8-.1-8.3-1.1-16.7-2.2-25-3.2 8.3 1.1 16.7 2.2 25 3.2.3 0 .6 0 .8.1ZM355.6 428.3c1.4.8 2.9 1.7 4.3 2.5.5.4 1 .9 1.6 1.3-.5-.4-1-.9-1.6-1.3-1.4-.8-2.9-1.7-4.3-2.5ZM317.7 182.4h-.3c-.5 0-.9-.1-1.4-.2.5 0 1.1.1 1.6.2ZM365.4 182.8c4.8-1 9.5-2 14.3-3.1-4.8 1-9.5 2-14.3 3.1-.4 0-.7.1-1.1.2.4 0 .7-.1 1.1-.2ZM360.5 183.4c-.4 0-.7 0-1.1.1.4 0 .7 0 1.1-.1-.4 0-.7 0-1.1.1-.9.1-1.7.3-2.6.4.9 0 1.7-.3 2.6-.4.4 0 .7 0 1.1-.1ZM138.7 170.7c1.1.2 2.2.3 3.3.5h1.1-1.1c-1.1-.2-2.2-.3-3.3-.5h-1.1c-6.7-.6-13.3-1.9-19.4-4.4 6.2 2.5 12.7 3.7 19.4 4.4h1.1ZM115.9 385.9c.1.3.3.6.4 1-.2-.3-.3-.6-.4-1ZM323.3 182.9h-2.2c-1.1-.1-2.2-.3-3.4-.4 1.1.1 2.2.3 3.4.4h2.2ZM335.5 183.4c7 .2 13.9.3 20.9.4-7-.1-13.9-.3-20.9-.4h-2.8c-3.1-.2-6.3-.3-9.4-.5 3.1.2 6.3.3 9.4.5h2.8Z"/><path fill="#598b42" d="M365.4 182.8c-.4 0-.7.1-1.1.2-1.3.1-2.6.3-3.9.4 1.3-.1 2.6-.3 3.9-.4.4 0 .7-.1 1.1-.2ZM293.2 181.2c-1.5 0-3 0-4.4-.1-5.2-.3-10.4-.7-15.6-1 5.2.3 10.4.7 15.6 1 1.5 0 3 0 4.4.1ZM392.6 179.8c1.3-.8 2.5-1.7 4.1-2.7-1.5 1-2.8 1.9-4.1 2.7-1.8.2-3.9 1.6-5.5.3 1.6 1.3 3.6 0 5.5-.3ZM273.2 180.1h-1.7l-21.1-1.1c7 .4 14.1.7 21.1 1.1h1.7ZM311.6 181.7h-1.1c-5.7-.2-11.5-.3-17.2-.5 5.7.2 11.5.3 17.2.5h1.1ZM387.5 199.8c.9-.3 1.7-.8 2.6-1.2.5-.2 1.1-.4 1.6-.6-.5.2-1.1.4-1.6.6-.9.4-1.7 1-2.6 1.2ZM217.7 198.2c.7-1.5 1.6-3.4 2.5-5.3 1.5-2.5 3.1-4.9 4.4-7.4-1.3 2.5-3 4.9-4.4 7.4-.9 1.9-1.8 3.8-2.5 5.3ZM317.4 182.4c-.5 0-.9-.1-1.4-.2-1.5-.2-3-.3-4.5-.5 1.5.2 3 .3 4.5.5.5 0 .9.1 1.4.2Z"/><path fill="#100e0c" d="M231 265.8zM375.8 64zM231 265.8ZM422.6 244.9zM240.9 87.9zM422.7 244.8ZM422.7 244.8ZM110.5 80.1c-2.2 12-3.8 24.1-5.5 36.2-.8 5.6-1.3 11.3-1.6 17-.2 2.7.2 5.4.5 8 .4 3.8 1 7.5 1.4 11.2.1 1.1 0 2.4-.4 3.4-5.1 12.7-8.1 25.7-7.8 39.5 0 1.4-.3 2.9-.5 5.1-1.9-3.1-3.3-5.5-5-7.8-.5-.7-1.8-1.6-2.6-1.4-.7.2-1.7 1.5-1.7 2.4.2 7.8.4 15.5.8 23.3.2 4.7.6 9.3 1 14.2-4.6-.4-8.5-.9-12.4-1-1.1 0-2.7.5-3.3 1.3-.4.6.2 2.2.8 3.1 5.7 9.1 11.6 18.2 16.8 26.4-1.6 4-3.1 6.8-3.8 9.8-1.4 5.5.1 11 .8 16.5.4 2.9.6 5.9.1 8.7-.4 2.6-1.8 5-2.9 7.5-4 8.8-8.1 17.7-12.1 26.5-1.6 3.4-.7 4.7 3 4.6h4.1c-1.8 3.5-3.7 6.5-4.9 9.8-1 2.6-1.4 5.5-1.6 8.3 0 1.1 1.3 3 2.3 3.2.9.2 2.4-1.2 3.3-2.2 1.3-1.5 2.3-3.3 3.5-5-1 7.2-2.7 14.1-3.5 21.2-.5 3.9.3 8.1.9 12.1.2 1.1 1.4 2.6 2.5 2.9.7.2 2.2-1 2.9-1.9 1.4-1.6 2.5-3.5 3.9-5.1 2.5-3 5.2-5.8 7.8-8.7.5 1.6.4 2.8.3 4-.8 8.4-.2 16.8 1.9 25 .7 2.5 2.3 3.7 5.1 3.9 3 .2 5-.8 6.4-3.4.6-1.2 1.4-2.3 2.1-3.5.5 1.2.4 2.2.5 3.3.2 8.4 3.5 15.4 8.9 21.6 2.3 2.7 4.2 2.5 6.3-.3 2-2.6 3.9-5.4 6-8 1.4-1.8 3.2-3.3 4.9-5.2.4.8.5 1 .5 1.1v2.5c-.8 9.1 2 17.6 4.9 26 .3.8 1.3 1.9 2 1.9.9 0 1.9-.9 2.5-1.7.6-.8.7-1.9 1.1-2.8 1.8-3.8 3.6-7.5 5.4-11.3.3 0 .5.2.8.3 0 2.6-.4 5.4.1 7.9.7 3.4 1.7 6.8 3.4 9.8 1.7 3 3.6 2.9 6.5.9 5-3.6 10.1-7.2 15.2-10.8 1.4-1 2.9-1.8 4.8-2.9v3.1c-.2 5.8-.4 11.6-.5 17.5 0 2.8 1.6 3.7 4 2.3 1-.6 1.8-1.3 2.7-1.9 5.9-3.7 11.8-7.4 17.7-11 1.4-.8 3-1.2 4.8-1.8.3 1.5.6 2.6.8 3.6.4 3.1.7 6.2 1.2 9.3.5 3.5 2.3 4.3 5 2.2.7-.6 1.4-1.2 2.2-1.7 4.6-3.6 9.3-7.2 14.3-11.1 1.3 4.9 2.3 9.2 3.6 13.6 1.3 4.5 3.3 5 6.7 1.9 5.8-5.4 11.7-10.8 17.5-16.2.4-.4 1-.7 1.6-1.2.3 1.4.5 2.6.9 3.7 1.8 4.9 3.3 10 5.6 14.7 1.8 3.9 3.4 4 6.6 1.1 3.6-3.2 6.9-6.6 10.4-9.9 3.5 2.3 7.4 4.5 10.9 7.2 5.6 4.2 5.8 4.1 8.6-2.4 2-4.7 4.4-9.3 6.8-14.3 1.6 1.1 2.8 1.8 3.8 2.7 4.5 4 8.9 8.1 13.4 12.1 2.2 2 3.6 1.9 5.1-.6.6-.9 1-2 1.5-3 2.8-5.7 5.7-11.4 8.6-17.3.9.5 1.7.9 2.5 1.4 4.8 3.1 10 5.7 13.2 10.9.4.7 1.8 1.2 2.6 1 .7-.2 1.4-1.4 1.6-2.2.4-1.4.4-2.9.6-4.4 1.4-8.1 2.9-16.3 4.4-24.6 6.8 1.3 13.6 2.7 20.3 4.1 3.1.6 4.1-.4 3.9-3.6-.3-3.8 0-7.6 0-12.3 3.8 2 7 3.7 10.3 5.4.9.5 2.2 1.3 2.7 1 .7-.4 1.2-1.8 1.2-2.7-.4-9.3-1.2-18.6-4.4-27.5-1.4-4.1-1.4-4.1 2.2-6.6 6.4-4.4 8-11.6 3.6-16.8v-.5c7-3.2 9.5-8.2 8.7-16.7-.8-8.3-7.7-11.9-15-7.8-.7.4-1.6.7-1.9.8-1.6-2.2-2.7-4.2-4.3-5.6-3-2.5-6.5-4.6-9.6-7-.7-.6-1.5-1.9-1.3-2.8.9-5 .4-9.7-2.2-14.2-.8-1.3-1.3-2.8-2-4 .3-.4.4-.6.6-.6.5-.3 1-.5 1.5-.7 6-3.2 11.9-6.6 14-13.8.2-.6 1.2-1 1.8-1.5 5.3-3.8 11-7.2 15.9-11.5 8.8-7.6 9.6-24 .1-33.8-2.3-2.4-5.8-4.2-4.2-8.6v-.3c-.4-4-3.1-6.3-6-8.6-.9-.7-2-2-1.9-2.9.7-6.4 1.7-12.8 2.4-19.1.1-1.2-.6-2.9-1.5-3.6-.6-.5-2.4.2-3.4.7-2 1.1-3.8 2.4-6.1 3.9 0-1.1 0-1.6.1-2 .3-5.1.9-10.1.9-15.2 0-5.2-2.2-6.3-6.7-4.2h-.3c.3-5.7.6-11.2.8-16.8.1-4.6 0-9.2 0-13.8v-3.1c-.7-8.1-1.3-16.2-2.1-24.3-1.3-12.4-2.2-24.9-6.5-36.8-3.2-8.9-6.7-17.6-10.2-26.4-.4-1.1-1.9-1.8-2.9-2.7-.5 1.2-1.4 2.4-1.3 3.5.2 9.3-1.3 18.5-4.1 27.3-3.7 11.5-8 22.9-12.1 34.3-.7 1.9-1.7 3.6-2.8 5.9-.8-5.2-1.5-9.6-2.2-13.9-1.6-9.3-5.2-17.9-9.2-26.4-1.3-2.7-3.2-2.8-4.5-.6-2.3 3.8-4.5 7.6-6.8 11.4-3.3 5.5-6.5 11.1-10.1 17.3-2.8-3-5.5-5.7-8-8.7-2.2-2.6-3.9-5.6-6.1-8.3-.6-.7-1.9-1.2-2.8-1.1-.7.1-1.4 1.3-1.7 2.2-.6 1.5-.9 3.1-1.4 5.2-.7-1.2-1.1-1.8-1.4-2.5-2.1-4.7-4.2-9.5-6.4-14.1-.5-1-1.5-2.1-2.4-2.3-.6-.1-1.6 1.2-2.4 1.9-.7.6-1.4 1.1-2 1.7-.7.7-1.7 1.5-2 2.4-1.3 4.5-5.1 6.8-8.2 10.2-1-1.5-1.9-2.7-2.6-4-4-6.8-8-13.6-14-18.9-2.9-2.6-4.7-2-5.6 1.7-.9 3.4-1.9 6.8-2.9 10.4-3-3.4-5.4-6.7-8.3-9.5-3.7-3.5-4.9-3.2-7.8.6h-.7c-.6-1.2-1.4-2.5-2-3.8-1-2.4-1.8-4.9-2.9-7.2-.5-1-1.5-2-2.5-2.3-.5-.1-1.6 1.2-2.2 2-.6.7-.9 1.6-1.4 2.4-.3-.2-.6-.3-.8-.5-3.8-3.7-4.1-3.5-6.8 1.2-4.4 7.8-9.1 15.4-13.9 23.5-.9-3-1.6-5.7-2.3-8.4-.8-2.6-1.5-5.2-2.5-7.6-.3-.8-1.5-1.7-2.3-1.7-.8 0-1.8 1-2.2 1.8-.8 1.4-1.3 3-1.9 4.6h-.5l-.6-3.3c-1.2-5.8-2.3-11.6-3.7-17.3-.3-1.2-1.7-2.2-2.6-3.2-.9 1-2.1 1.9-2.7 3.1-2.9 5.8-5.4 11.7-8.6 17.4-5.2 9.4-10.7 18.6-16.2 27.8-1.3 2.2-2.6 4.3-4.4 7.3-1.4-6.7-2.5-12.6-3.9-18.4-3.9-16.5-6.6-33.2-6.3-50.2 0-5.8.1-11.6 0-17.4-1.3.6-2.5 1.3-3.8 1.9 0 .5-.2.9-.3 1.3 0 3.4 0 6.9.1 10.3 0 2.4 0 4.7.1 7.1 0 2.3 0 4.6.2 6.9 0 1.2 0 2.3.1 3.5.4 12.8 3.4 25.3 6 37.8.6 2.7 1.1 5.3 1.7 8 .5 2.7 1.1 5.3 1.6 8 .2.5.4 1 .6 1.4 0 .1 0 .2.1.3 0 .4.2.7.2 1.1.1.8.2 1.6.4 2.4.7 3.1 2 3.6 4.5 1.5 6.2-10.8 12.4-21.6 18.6-32.3 1.4-2.5 3.1-4.8 4.7-7.1 1.7-3.4 3.5-6.8 5.2-10.1.3-1 .7-2 1-3.1.2-.3.4-.7.6-1 .1.3.3.6.4.9l1.5 7.5c1.5 7.5 3 15 4.6 22.4 1.4 6.9 3.1 13.7 4.6 20.6.3.9.6 1.8.9 2.8 0 .4.1.7.2 1.1 0 1.2.3 2.1.9 2.6.6.5 1.5.5 2.8.1 3.6-6.2 7.3-12.4 10.9-18.7 1.2-2.1 2.4-4.2 3.5-6.3 3.1-5.6 5.9-11.3 8.8-17 .4-.8.9-1.6 1.3-2.4.3-.6.5-1.3.8-1.9.6-1.8 1.3-3.6 1.9-5.3.2-.3.3-.6.5-.8.2.3.4.7.5 1 3.2 6 6.6 11.9 9.6 18 5 10.2 9.7 20.4 14.6 30.7.9 1 1.7 2 2.6 3l.6-.3c1.3-.8 2.7-1.4 3.7-2.5 9.7-9.8 19.4-19.7 29.1-29.6.6-.8 1.2-1.6 1.8-2.3 0-.1.2-.3.2-.4 0 0 .1-.2.2-.3.1-.2.3-.5.5-.8.1-.2.2-.3.3-.5 1 2.2 1.8 4 2.6 5.8 4.9 10.5 9.8 20.9 14.6 31.4.3.7.5 1.4.8 2.1.2.3.4.5.6.8 0 .2.2.3.3.5.1.2.3.5.4.7 0 0 0 .1.1.2v.1c.6.7 1.3 1.1 2.6.9 4.3-4.2 7.7-9.2 10.8-14.3l2.1-3.6c4.6-8.3 9.4-16.4 14.5-25.2l.3.6c.2.4.4.7.5 1 .4.7.7 1.3 1 1.9 0 .1 0 .2.1.3V89c.1 0 .2.1.4.2 0 .2.1.4.2.5v.8l.6 1.8c.3.7.7 1.5 1 2.3.2.4.4.8.5 1.2.9 2 1.7 4 2.1 6.1.8 4.7 1.5 9.4 2 14.1.4 2.8.7 5.7 1.1 8.5h.4c.1.5.3 1 .4 1.5l.2.8h.8c.8 0 1.6.2 2.4.3 3.2-4.2 5.5-8.7 7.4-13.4.3-.7.5-1.4.8-2 .3-.7.5-1.4.8-2.1.6-1.7 1.2-3.4 1.8-5.2s.5-1.4.7-2.1c.2-.7.5-1.4.7-2.1.6-1.7 1.2-3.5 1.8-5.2 1.6-4.4 3.2-8.9 4.6-13.4 1.8-5.8 3.3-11.7 4.1-17.7 0-.7 0-1.4.1-2.1 3.5 7.6 6.2 15.3 8.2 23.2.8 2.9 1.4 5.9 2.1 8.9 4.2 20.7 4.7 42.1 5.3 63.4v1.6c0 .5 0 1-.1 1.4 0 1-.2 1.9-.2 2.9-.2 2.4-.4 4.8-.9 7.2-.2 1.3-1.8 3-3.1 3.3-11.9 3.5-23.8 6.7-36.4 6.5h-4.5c-4.5 0-9 0-13.5-.1H332c-8.8-.7-17.7-1.5-26.5-2-16.2-.9-32.3-1.5-48.5-2.3H251.4c-9.9-.4-19.9-.8-29.8-1.1h-15.1c-6.3-.5-12.5-.8-18.8-1.5-9.9-1.1-19.8-2.6-29.7-3.8-7.2-.9-14.4-1.5-21.5-2.4-7.8-1-15.6-2.7-22.3-7-1.4-.9-2.6-2.6-3.3-4.1-2.4-5.2-2.4-11-2.6-16.6-.6-17.2 2.6-34.1 5.2-51 .7-4.8 1.8-9.5 3-14.1.4-1.5.9-3 1.3-4.5l1.5-4.5 2.1-5.7c.1-.3.3-.7.4-1 4.1-10.4 9.1-20.5 14.4-30.5-2 1-4 2.1-6 3.2-2.7 5.2-5.1 10.5-7.6 15.7-5.1 10.7-9.4 21.8-11.5 33.5Zm109.4-6.9c-1 1.9-1.9 3.8-2.8 5.7-2.5 5-4.8 10.2-7.6 15.1-3.8 6.6-7.9 13.1-12.2 20-.8-3.2-1.6-6.1-2.3-9.1-1.2-4.9-2.5-9.9-3.5-14.8 0-.4-.1-.8 0-1.3 0-1.3.4-2.7.5-4 .5-1.4 1.1-2.8 1.6-4.2.2 0 .4 0 .6.1 1.6 5.3 3.2 10.7 4.8 16 2.4 1.7 3.6.4 4.8-1.6 3.3-5.8 6.7-11.6 10-17.4.5-.8 1.1-1.4 1.7-2.1.8-1.6 1.6-3.2 2.4-4.9.3-.6.6-1.1.9-1.7 1.7 1.2 2.2 2.5 1.3 4.3Zm50.6 26.5c-5.3 5.5-10.5 11.1-16.2 17-1-2.1-1.8-3.8-2.6-5.5-3-6.5-6.1-13-9.1-19.5-.1-.2-.2-.5-.3-.8 0-.3-.2-.5-.2-.8-.2-.4-.4-.7-.6-1.1-.2-.4-.4-.7-.6-1.1-1.1-1.6-2.2-3.2-3.2-4.9-.3-.6-.6-1.1-.9-1.7-.4-.7.5-2.1.7-3.1.3-1.9 1.3-1.3 2-.4 2.3 2.8 4.6 5.7 6.8 8.6 1.2 1.6 2.1 3.5 3.1 5.2 1.9.5 2.9-.4 3.4-2.2.2-.7.4-1.3.6-1.9.6-1.9 1.3-3.9 1.9-5.8.3-1.4.6-2.8 1-4.3.1-.5.2-1.1.4-1.6 7.2 6.4 10.7 14.8 16 22.3-.7.6-1.4 1.1-2.1 1.7Zm47.1 14.1c-.2.2-.3.4-.5.6-.5.5-1 1.1-1.6 1.6-.2.2-.3.5-.5.7l-.9 1.5c-.3.5-.6 1-1 1.6-.5.8-1 1.7-1.6 2.7-1-1.9-1.7-3.2-2.3-4.5-2-4.2-4.2-8.4-5.9-12.8-.1-.3-.2-.5-.2-.8v-.3c0-1.2.3-2.5.4-3.8.3-1.2.6-2.3.8-3.5l.6-.6c4.1 4.8 8.2 9.6 12.5 14.3 1.1 1.3 1.1 2.2.2 3.3ZM96.5 262.4c3.3-4.8 7.6-5.1 13.3-1.3 5.9 3.9 11.9 8.5 12.8 16.5.6 5.1.7 10.2 1.1 15.3-.5 4.3-2.6 7.6-6.6 9.6-4 1.9-8 3.2-12.6 2.3-6.6-1.2-11.3-6.1-12-12.8-.6-5.6-1.3-11.2-1.8-16.8-.5-5.3 2-9.4 5.8-12.9Zm43.6 143.8v-.2.2Zm266.6-73.5c1.3-.2 2.5-1.1 3.8-1.6 4.3-1.7 8.6-1.4 9 4.9.2 3 .6 6.1-1.7 8.6-2.9 3.9-6.6 5.2-11.6 4.4-5-.8-10.1-.9-15.2-.8-11.6.2-23.1.5-34.7 1-18.1.8-36.2 1.9-54.3 2.5-14.8.4-29.6.5-44.4.1-8.3-.2-16.5-1.5-24.8-2.3-.8 0-1.5-.8-2.3-.9-.9 0-1.8.3-2.7.4.2.9 0 2.3.6 2.7 1 .8 2.5 1.3 3.8 1.5 19.8 3.6 39.8 3 59.8 2.6 10.4-.2 20.7-.8 31.1-1.3 16.3-.7 32.5-1.6 48.8-2.1 10.3-.3 20.6-.2 30.8-.1h.5c1.2.1 2.4.5 3.6.7 2 .4 4.2 1.2 5.4 2.5.2.2.3.4.5.6l.3.6c.1.3.2.6.2 1 .2 2.5-2.1 5.2-3.4 7.7-.3.6-1.3.9-2 1.3-3.3 1.2-6.4 3.1-9.8 3.6-10.4 1.3-20.9 2.5-31.4 3-10.2.6-20.4.5-30.5.4-15.2 0-30.4-.3-45.5-.5-13-.1-26.1-.3-39.1-.3-8.6 0-17-1.1-25.2-3.2-8-2-14.8-11-14.4-19 0-.4.2-.9.4-1.3.2-8 5.5-13.6 13.9-13.2 7.6.3 15.3 1.3 22.6 3.3 10.7 2.9 21.3 4.5 32.3 3.7 2.9-.2 5.7 0 8.6-.2 12.8-.7 25.6-1.3 38.4-2.2 3.2-.2 6.4-.4 9.7-.7 3.4-.3 6.8-.5 10.3-.8 6.2-.5 12.5-1 18.7-1.5 4.6-.4 9.1-.8 13.7-1.2h.5c1.8-.2 3.6-.3 5.3-.5.9-.1 1.9-.2 2.8-.3 6-.7 11.9-1.9 17.8-3Zm7.7-65.1c-7 5.7-14.9 9.5-24.1 10.3-.7 0-1.3 1.2-2 1.8.7.6 1.4 1.7 2.1 1.7 1.5.1 3.1-.3 4.6-.6 1.2-.2 2.3-.6 4-1.1-2.3 4.4-5.5 6.9-9.2 8.8-1.6.8-3.2 1.8-4.9 2.4-13.1 4.6-26.4 8.4-40.5 8h-1.1c-.9 0-1.9 0-2.5.5-.5.4-.8 1.2-.7 2.5 2.2.3 4.5.8 6.7 1h2.2c9.4-1.1 19-1.6 27.9-5.4.8-.4 1.8-.6 2.6-.9 2-.8 3.2-.4 4.1 1.7 1.6 3.6 4 6.9 3.4 11.2-.1.9-.2 1.7-.4 2.6-3.1-.7-5.9-1.3-8.6-1.9-1.6-.3-3.2-.1-4 1.6.4 2.2 2.1 2.3 3.9 2.8 2.3.7 4.6 1.6 6.9 2.4.8.3 1.5.6 2.3.9 1.1.5 2.2.9 3.2 1.4.4.2.7.3 1 .5.7.4 1.4.7 2 1.1s1.3.8 2 1.3c2.6 1.8 4.9 4.1 6.8 7.2-1.6.2-2.8.4-4 .5-9 1.2-17.9 2.6-26.9 3.4-21.2 2-42.4 3.7-63.6 5.5-1.3.1-2.6.2-3.9.2-10 .2-20 .4-30 .5-8.1.1-16-1.3-23.7-3.8-9.1-2.9-18.4-4.1-27.9-3-7 .8-11.1 5.4-13.2 11.6-4.8 14.2 6.8 27.2 16.4 29 7.9 1.4 15.9 2.4 23.9 3.5h4c-2.1 6.7-4 13-6.1 19.8-3.3-3.5-6.1-6.7-9-9.7-2.4-2.6-3.9-2.2-5 1.2-.9 2.6-1.7 5.2-2.8 8.5-5.9-5.5-11.6-10.7-17.1-16-4-3.8-7.9-7.8-11.8-11.7-1.1.2-2.1.4-3.2.5-1.2 3.5-2.4 6.9-3.7 10.4h-.6c-.5-2.4-1-4.8-1.4-7.3-1.5-10.1-2.8-20.3-4.5-30.4-.4-2.6-1.8-5.1-2.7-7.7-2.3-.7-3.9.5-5.5 1.9-1.5 1.3-2.9 2.5-4.4 3.8-1.3 1.6-2.6 3.2-3.9 4.9-.3 0-.7-.2-1-.3.6-6.5 1.2-12.9 1.8-19.4.3-3.3.5-6.6.7-9.9-.5-.4-1-.6-1.5-.7-1.4-.3-2.8.5-4.2 1.1-1.9 1.2-3.8 2.5-5.7 3.7l-.6-.3c.3-1.2.5-2.4.9-3.5 3.4-8.7 7-17.3 10.3-26 .9-2.3 1.3-4.8 2-7.1-1.5-.5-2.9-1.3-4.4-1.4-.7 0-1.5.1-2.3.3-.3 0-.6.2-1 .3-.3 0-.6.2-.9.2-.1 0-.3 0-.4.1-1.1.3-2.2.6-3.4.9-.2-.2-.5-.4-.7-.6 4.5-7.6 9-15.1 13.5-22.7.6-4.1.2-4.6-3.8-4.6h-3.3c-1.6.3-3.2.6-5.3.9 4.8-8.5 10.4-15.5 17.5-21.4 1.8-2.1 3.6-4.2 5.3-6.4 2.4-3.3 1.5-5.3-2.5-5.8-1.3-.2-2.7-.3-4.1-.4 7.8-6.6 15.4-13.1 23-19.5 2.3-2.8 2.2-3.1-.7-5.5 5.9.4 11.1 2.4 15.9 5.7 1.9.6 3-.3 3.9-2 1.6-3.2 3.5-6.2 5.3-9.3.3-.5.6-1.1.8-1.6.8-1.7 1.7-3.3 2.6-5.2 9 4.9 17 10.7 24.4 17.3 1.9.1 2.8-1 3.3-2.7.2-.7.4-1.3.6-2 .6-2 1.3-3.9 1.9-5.9.2-.9.5-1.9.8-2.8.1-.5.3-1 .4-1.6.1-.5.3-1.1.5-1.7 3.9 2.1 7.7 3.9 11.1 6.1 4.4 2.9 8.4 6.3 12.6 9.4 1.3 1 2.5 1.9 3.8 2.9.9 1.9 1.8 3.9 2.9 6.3-6-1.4-11.2-2.7-16.5-3.8-14.7-3-29.4-3-43.8 1.8-3.9 1.3-7.7 3.1-11.5 4.8-.7.3-1 1.5-1.5 2.3.9.4 2 1.2 2.8 1 .6-.1 1.1-.3 1.6-.5.3-.1.7-.3 1-.4.7-.3 1.3-.5 1.9-.8.3-.1.5-.2.8-.3.3-.1.7-.3 1-.4.4-.2.8-.3 1.3-.5.4-.2.7-.3 1.1-.5.5-.2 1-.4 1.6-.7.7-.3 1.3-.5 2-.8s1.3-.5 2-.7c18-5.1 35.7-2.5 53.2 2.8 4.6 1.4 8.1 4.6 11.1 8.4.3.4.4 1.1.8 1.9-.3-.1-.6-.3-.9-.4-.6-.2-1.1-.5-1.6-.7-.5-.2-.9-.4-1.4-.6-.8-.4-1.6-.7-2.4-1.1-.4-.2-.8-.3-1.2-.5-19-5.2-38.2-4.5-57.4-1.6-7.4 1.1-14.5 2.8-21.3 5.7-.9.4-1.4 1.6-2.1 2.4 1.1.4 2.3 1.3 3.2 1l2.1-.6c2-.6 4-1.4 6.1-2.1 3.9-.8 7.8-1.6 11.8-2.3 1.3-.3 2.6-.5 3.9-.7 15.7-2.7 31.5-2.8 47.1.4 6.4 1.3 12.7 3.4 17.7 8 1.1 1.4 2.2 2.8 3.4 4.1-.1.2-.3.3-.4.5-2-1.1-4-2.2-6.1-3.2-6.8-3.2-14.2-4.2-21.5-4.8-11.8-1.1-23.5-.3-35.3 2.2-12.9 2.8-24.4 8.2-35 15.7-6 4.2-12.3 7.4-19.3 9.4-.7.2-1.3 1.3-1.9 1.9.7.6 1.4 1.2 2.3 1.6.5.2 1.1 0 1.7 0h.2c2.1-.4 4.2-.6 6.3-.6s4.1.2 6.1.5c4 .7 7.9 2.2 11.7 4.2 11 6 22.3 11.3 34.8 13.2 11.6 1.7 23.3 3.3 35.1 1.5 7.8-1.2 15.3-3.6 21.3-9.3 1.1 3.5-1.2 9.8-4.7 11.1-5.7 2.2-11.5 4.2-17.4 5.3-20.5 3.8-40.7 1.5-60.5-4.6-1.6-.5-3.2-.9-4.8-1.4-.9.7-1.7 1.4-2.6 2.1.3.2.6.5.9.7.1.1.2.2.4.3.4.3.9.6 1.3.8 17.6 5.9 35.7 8.3 54.1 7.4 9.5-.5 18.9-2.5 27.8-6.1 2.3-.9 4.2-2.8 6.3-4.3 1.1-2.2 2.2-4.5 3.3-6.7v-8.5c.9.7 1.9 1.3 2.8 2 3.7 2.9 7.8 4.9 12.6 5.3 12.4 1 24.9 2.6 37.4 2.9 13.8.4 27.3-2.3 40.1-7.6 5.7-2.4 11.3-4.8 17-7.3.2.2.4.4.6.5-2.5 2.5-4.8 5.1-7.5 7.3Zm-123.1-67.1c2.5-2 4.8-3.9 7.7-6.3 3.5 3.4 6.9 6.8 10.4 10.2l3.3-.6c1.9-1.8 3.7-3.7 5.6-5.5 1.9-1.8 3.8-3.7 5.7-5.6 1.6 2.3 2.9 4.4 4.3 6.2 3.2 4.1 5 4.5 9.4 1.9 4.3-2.5 8.5-5.2 13.2-8 1.2 2.2 2.3 4.4 3.5 6.7 2 2.5 4.1.9 6.1 0 4.2-2.1 8.3-4.3 12.5-6.3.6-.3 2 0 2.4.5 2.3 2.6 4.4 5.5 6.6 8.1.8 1 2 1.8 3 2.6 2.1-.6 4.2-1.3 6.5-2 1.1 1.6 2.2 3.3 3.7 5.5-32.3-6.4-61.2 1.7-88.5 18.2-2.5-5.2-6-9.6-10.6-13.1-.4-.3-.5-1-.6-1.5-.4-1.5-.8-2.9-1.3-4.4-.4-1.5-.8-2.9-1.3-4.4-.2-.4-.5-.8-.8-1.1s-.5-.8-.8-1.3Zm-60.4 65.3v-.1c-3.5-1.7-7.1-3.3-10.6-5.2-5.6-3-11.2-5.5-17.9-6.2 9.1-6.1 17.6-12.7 28-16.1-.9 2.7-2.1 5.4-2.6 8.3-1 6.1-.4 12.2 2.8 17.7.3.5.3 1 .4 1.6h.3v.2s-.2-.1-.3-.2h-.1Zm5.6-29.3c2.6-2.6 6-2.6 9.2-3.2 6.5-1.2 13-2.3 19.5-3.4 0 .2 0 .5.1.7.8 0 1.7.1 2.5 0 6.8-1.1 10.4 3.1 12.7 8.3 4.5 10 3.7 19.7-2.4 28.9-1.4 2.1-3.4 3.5-5.9 4.7-4.9 2.5-9.5 1-14.2.4-4.3-.6-8.5-1.3-12.8-2-4.4-.7-7.9-2.7-10.5-6.6-5.4-8-5.6-20.8 1.7-27.9Zm43.9-5.1c8.4 1 16.6 2.2 23.8 6.9 8.2 5.4 9.7 15 3.9 22.9-4.6 6.4-10.9 9.8-18.3 11.5-3.7.8-7.6 1.2-11.4 1.8 10.8-14.3 11.6-28.4 2-43.1Zm53.8 37.6c-7.2-.6-14-1.8-19.5-7-1.3-1.2-1.6-1.9-.8-3.4.6-1.1 1-2.5 1-3.7 0-2.8 1.5-4.7 3.7-6 4.1-2.4 8.3-4.6 12.9-7.1-1.6 9.6-1.9 18.6 2.7 27.2Zm.4-24.7c1.1-4.3 3.8-6.4 7.5-7.7 6.9-2.5 13.8-4.6 21.2-4.2 6.7-.6 11.8 2 15.6 7.3 1.1 1.5 1.8 3.6 1.9 5.6.7 6.7-.5 13.1-4.5 18.7-4 5.7-9.3 8.2-16.3 7.3-4.6-.6-9.2-1.2-13.8-1-6.2.2-9.9-1.6-11.6-9.5-1.1-5.3-1.5-10.9-.1-16.4Zm85.9 11.3c-13.9 7-28.2 13.1-43.9 14.5 1.7-2.8 3.5-5.5 5.1-8.4 3.4-6.2 4-13 2.5-19.7-.7-3.1-3.3-5.8-5-8.8 16.4.3 30.2 8.9 44.6 16.1.7 2.9-.2 4.9-3.1 6.3Zm-9.2-34.1c1.8 1.2 1.9 3.2 1 5.7-1.7-.9-3.2-1.7-4.7-2.5-4.1-1.3-8.2-3.3-12.4-3.9-7.9-1-16-1.6-24-1.5-10.2.1-20.5.3-30.6 2.9-8.4 2.2-16.9 4-23.7 10-.3.3-.9.5-1.1.9-.3.8-.5 1.6-.7 2.4.9.2 2 .8 2.7.5 1.6-.7 3-1.8 4.4-2.9 5.5-4.4 12.4-5.1 18.8-6.9 3.5-1 7-1.6 10.5-2.1 5.1-.6 10.1-.7 15.2-.9h3.3c.4 0 .9-.1 1.3-.1 1.2 0 2.3 0 3.5-.1 11.6-.8 22.5 1.2 32.7 6 2.4 1.1 4.7 2.3 7 3.7 4.3 2.6 6.5 6.7 8.3 11.1.1.3-.1.7-.2 1.1l.3-.3v.2c-.1 0-.2 0-.4.1v.1c-2-1.3-4-2.5-6-3.8-.2-.1-.4-.3-.6-.4.2.1.4.3.6.4-.2-.1-.4-.3-.6-.4-4.1-1.8-8.3-3.6-12.4-5.5-9.9-4.7-20.6-5.5-31.3-6.3-9.9-.7-19.7-.2-28.9 3.5-7.4 2.9-14.4 6.7-21.5 10.2-2.3 1.1-4.5 2.5-7 4-1.6-5.7-1.8-12-6.9-16.6 3.1-1.9 6.2-3.7 9.3-5.4 1.6-.8 3.1-1.6 4.7-2.4 1.1-.5 2.1-1 3.2-1.5 2.5-1.2 5.1-2.2 7.7-3.2.2 0 .4-.2.7-.3 6.4-2.4 13-4.3 19.8-5.6.2 0 .4 0 .6-.1.4 0 .7-.1 1.1-.2h.5c.4 0 .8-.1 1.3-.2.6 0 1.1-.2 1.7-.2.5 0 1.1-.1 1.6-.2h.2c.4 0 .8 0 1.1-.1h.6c.4 0 .8 0 1.2-.1 1.6-.2 3.1-.3 4.7-.4h2.5c9.6 0 19.4-.1 28.4 3.9 4.5 2 8.4 5.2 12.5 8Zm-8.7-23.2c.2-.1.4-.3.6-.5 1.1-.8 2.3-1.5 3.4-2.3.3 0 .6.2.9.3-.7 5.2-1.3 10.5-2 16.4-.7-.4-1.3-.7-1.8-1-.8-.5-1.5-.8-2.1-1.2-.8-1.3-2-2.5-2.8-3.8-.5-.8-.8-1.5-.9-2.3-.3-3.3 1.8-5.1 4.7-5.7Zm-9-24.2c0 .1-.1 0-.1 0h.1Zm-275.4-7.9c6.2 2.5 12.7 3.7 19.4 4.4h1.1c1.1.2 2.2.3 3.3.5h1.1c8.3 1.1 16.7 2.2 25 3.2.3 0 .6 0 .8.1h.3l3 .3c5.3.6 10.6 1.2 15.9 1.7h1.7c2 .2 4.1.3 6.1.5h1.1l9.5.5h2.8c10.2.2 20.4.3 30.6.5.9 0 1.9 0 2.8.1 1.9.1 3.7.3 5.6.4h2.2l21.1 1.1h1.7c5.2.3 10.4.7 15.6 1 1.5 0 3 0 4.4.1 5.7.2 11.5.3 17.2.5h1.1c1.5.2 3 .3 4.5.5.5 0 .9.1 1.4.2h.3-.3.3c1.1.1 2.2.3 3.4.4h2.2c3.1.2 6.3.3 9.4.5h2.8c7 .2 13.9.3 20.9.4h.4c.9 0 1.7-.3 2.6-.4.4 0 .7 0 1.1-.1 1.3-.1 2.6-.3 3.9-.4.4 0 .7-.1 1.1-.2 4.8-1 9.5-2 14.3-3.1 1.6-.4 3.2-.8 4.8-1.1.5 0 1.4-.2 1.5 0 .3.6.7 1.1 1 1.4 1.6 1.3 3.6 0 5.5-.3 1.3-.8 2.5-1.7 4.1-2.7.2-.1.4-.3.7-.5 1.5 8.2-.8 15.6-1.8 23.3-1.5-.8-2.7-1.4-3.9-2-.5.2-1.1.4-1.6.6-.9.4-1.7 1-2.6 1.2h-.4c-.7.1-1.7-.3-2.2-.8-1.5-1.7-3-3.3-4.5-5-1.5-1.7-2.9-3.4-4.4-5.1-1.8.5-3.6 1-5.3 1.5-1.8.5-3.6 1-5.3 1.6-.2 0-.3 0-.4.2-1 .4-2 .9-3 1.4-1.4 1-2.8 1.9-4 2.7-2.3-2.8-4.3-5.4-6.4-7.9-1.5.7-3 1.3-4.4 2.1-3.7 2.2-7.3 4.5-11 6.8-.6.6-1.2.9-1.8 1h-.6c-.4 0-.8-.2-1.2-.4-.5-.3-.9-.8-1.3-1.5-1.6-2.5-3.2-5-4.7-7.5-1.7-1.6-3.1-.8-4.5.5-3.1 2.8-6.3 5.5-9.4 8.3-.5.6-1 1.3-1.6 2-3.4-2.9-6.7-5.8-10-8.7-2.2-1.3-4.1-1-5.7 1.1-.1.2-.3.3-.4.4-.3.3-.8.6-1.1.9-.1 0-.2.2-.3.2 0 .1-.2.2-.3.3l-.3.3c-3.8 3.1-3.7 2.9-7.7.4-6.8-4.2-13.8-8.1-20.7-12.1-.8-.3-1.7-.7-2.5-1-2.8-.9-4.1 0-4.5 2.9 0 .4-.1.7-.2 1.1-.2 1.1-.6 2.1-.8 3.1-.6 1.9-1.1 3.8-1.6 5.6-.2.6-.3 1.2-.5 1.8-7.9-5.1-15.5-10.1-23.2-15.1-2.9-.8-4.4.6-5.6 3.1-.2.4-.4.7-.6 1.1-1.3 2.5-3 4.9-4.4 7.4-.9 1.9-1.8 3.8-2.5 5.3-8-2.5-15.7-4.9-23.4-7.2-1.7.6-2.1 1.8-1.2 3.3 1.3 2.3 2.6 4.6 4.2 7.4-6.1 5-12.5 10.3-19 15.6-1.8 1.5-3.7 2.8-5.4 4.3-.7.7-1.3 2.1-1.1 2.8.3.8 1.6 1.4 2.6 1.6 2.2.4 4.6.4 7.6.6-2.4 2.6-4.1 4.7-6.1 6.6-5.6 5.3-10.7 11.1-14.8 17.6-1 1.6-2 3.3-2.7 5.1-.4 1.1-.6 2.8 0 3.5.6.7 2.3.9 3.5.8 2.7-.2 5.4-.7 8.9-1.2-3.1 5.3-5.9 9.9-8.5 14.5-1.8 3.3-3.5 6.7-5.1 10.2-.4.9-.5 2.5 0 3 .7.7 2.2.9 3.2.8 3.1-.5 6.1-1.4 9.8-2.3-2 4.7-3.8 8.7-5.4 12.8-2.4 6-4.7 12.1-6.8 18.2-.6 1.8-.8 3.8-.7 5.7 0 2.9 1.4 3.7 4 2.4 2.6-1.3 5.1-2.9 8.3-4.7-.3 2.3-.5 4-.9 5.6-1.8 7.9-1.4 15.8-1.3 23.8 0 .6 0 1.2.3 1.6.4.8.9 2 1.6 2.2.7.2 1.8-.6 2.4-1.3 3.3-3.7 6.6-7.5 9.9-11.2.4-.5 1-.7 2.1-1.4.7 3.7 1.4 6.9 2 10.3 1.7 10.8 3.3 21.6 5 32.3.3 1.6.7 3.3 1.5 4.7.5.9 1.6 1.9 2.5 2 .6 0 1.7-1.3 2-2.2 1.5-4 2.8-8 4.4-12.8 3.1 3.2 5.7 6.1 8.5 8.8 4.9 4.7 10 9.4 15 14 1.6 1.5 3.2 3 4.9 4.5 2.3 2.1 3.7 1.7 4.6-1.3.8-2.7 1.4-5.5 2.2-8.2.3-.1.6-.2.9-.4l8.1 9.9c.7.8 1.7 2.1 2.5 2 .8 0 1.9-1.3 2.2-2.3 2.4-7.2 4.7-14.4 6.7-21.7.5-1.9 1.6-1.7 2.9-1.7 12.9 0 25.7 0 38.6.1h14.7c10.4.1 20.7.4 31.1.4 10.2 0 20.4 0 30.5-.6 1.8 0 3.6-.3 5.4-.4 5.4-.6 10.9-1.5 16.3-2.2 1.8-.3 3.6-.7 5.5-1 .6-.1 1.3-.2 1.9-.4 1.8 4.7 3.3 9.4 4.2 14.2.2 1 .4 1.9.5 2.9 0 .5.1 1 .2 1.5.2 1.5.3 2.9.4 4.4v3.8c-1-.4-1.9-.7-2.9-1.1-2.8-1.1-5.5-2.1-8.3-3.2-1.2.1-2 .6-2.4 1.3-.3.6-.4 1.4-.4 2.3v12c-7.9-1.4-15.6-2.8-23.3-4.1-.5.9-1.4 1.8-1.3 2.6.6 7.8-2.3 15-3.3 22.6-.2 1.1-.3 2.3-.5 3.7-1.7-1.5-3.3-2.8-4.9-4.1-.5-.4-1-.9-1.6-1.3-1.4-.8-2.9-1.7-4.3-2.5s-2.9-1.7-4.3-2.5c-2.8-1.6-3.7-1.3-5 1.8-2.8 6.1-5.7 12.1-8.5 18.1-.2.4-.5.7-.8 1.2-4.6-4-9-7.8-13.5-11.7-1.1-.9-2.2-1.6-3.4-2.4-2.9-1.9-4-1.7-5.7 1.4-2.8 5.2-5.5 10.5-8.3 15.9-4.1-2.7-8.3-5.3-12.3-8.1-3.7-2.6-3.9-2.5-6.7 1.2-2.5 3.3-5.5 6.3-8.6 9.7-3.5-4.8-4.7-9.6-5.8-14.4-.4-1.9-.7-3.8-1.2-5.7-.7-2.6-2.3-3.2-4.6-1.6-1 .7-1.9 1.4-2.8 2.3l-16.5 15.3c-.4.4-.9.6-1.6 1-1.2-4.2-2.3-8.1-3.4-12.1-.2-.5-.3-1.1-.4-1.6-1.1-3.6-2.5-4.1-5.6-1.9-3.9 2.8-7.7 5.8-11.5 8.7-1.2.9-2.4 1.9-4 3.1-.6-4-1.1-7.6-1.8-11-.6-3.2-2.4-4.6-5.3-3.4-4.7 1.9-9.2 4.2-13.6 6.7-3.4 1.9-6.7 4.2-10.3 6.5 0-3.8-.1-7.3 0-10.7.1-2.6.6-5.1.8-7.7.2-2.8-.8-3.9-3.6-3.4-1.9.3-3.9 1.2-5.5 2.3-5.5 3.6-10.9 7.3-16.2 11.2-2 1.5-2.8.9-3.7-1.1-1.9-4.5-1.7-9.2-1.3-13.9.1-1.3.6-2.7.2-3.8-.4-1.3-1.3-2.7-2.4-3.2-.6-.3-2.5.7-3.1 1.5-2.9 4.3-5.5 8.8-8.5 13.7-.9-3.2-2.2-6.1-2.4-9.1-.3-5.1 0-10.3 0-15.4 0-.7.4-1.5.2-2.2-.3-1-.6-2.5-1.3-2.7-.9-.3-2.5 0-3.2.6-3.5 3.2-6.8 6.4-10 9.9-1.7 1.9-3.1 4.1-4.8 6.5-4.4-4.9-7.4-10.1-7.7-16.4-.2-3.7 0-7.4-.1-11.1 0-1-.6-1.9-1.1-2.9-.2-.3-.3-.6-.4-1-.4.3-1 .5-1.4.7-.8.4-1.6.8-2.1 1.4-1.9 2.6-3.3 5.6-5.1 8.2-.6.8-1.9 1.6-2.8 1.5-.7 0-1.7-1.4-1.8-2.3-1.5-8.4-2.6-16.8-.9-25.3.4-1.8.3-3.7.2-5.5 0-.9-.6-2.1-1.3-2.4-.7-.3-2.1 0-2.6.7-4.3 4.5-8.6 9.2-12.8 13.8-.6.6-1.1 1.4-1.9 2.6-.5-6.4-.2-12.1 1.1-17.7 1.4-5.7 2.7-11.3 3.8-17v-1.3c0-.3-.2-.6-.3-.9-.2-.4-.3-.9-.5-1.3-.1 0-.3 0-.4.1-.3 0-.6.1-.9.2-.8.1-1.5.3-2.1.7-1.8 1.4-3.4 3.2-5.1 4.8-.2-.1-.4-.3-.6-.4 2.5-4.6 5.1-9.1 7.6-13.7 1.4-2.7 2.9-5.4 4-8.2.4-1 .1-3.1-.5-3.5-1.6-.8-2.4.6-2.9 2-.5 1.2-1.1 2.4-1.6 3.5-1.7 3.3-2.9 3.9-7.1 3.4 4.4-9.9 8.9-19.7 13.4-29.7 9.5 11.3 20.2 10.8 31.6 3.3 3.7-4.4 5.5-9.2 5.1-15.2-.4-5.7-.1-11.4-2.4-16.9-1.2-2.8-2.4-5.6-5.4-7-1.1-.6-2.1-1.5-3-2.5-.5-.6-1.1-1.2-1.6-1.7-3.9-3.6-8.7-5.5-14.3-5.4-1.6.8-3.3 1.4-4.7 2.4-.2.1-.4.3-.6.4-1.7 1.3-2.4.9-3.4-.8-3.4-6.1-6.9-12.2-10.5-18.3-.7-1.2-1.7-2.3-3-4.2 3.6.4 6.5.7 9.4 1.1 3.3.5 4.5 0 4.6-3.3.2-4.1-.2-8.3-.5-12.4-.4-6.2-.8-12.3-1.2-18.5.3 0 .5-.2.8-.3 1.7 2.8 3.5 5.5 5.2 8.3 2.8.9 3.6.3 3.7-2.7.2-6.8.2-13.7.6-20.5.6-8.8 2.8-17.2 6.1-25.8 3.4 2.6 7 4.5 10.7 6Z"/><path fill="#14120d" d="M189.3 79.5h.5-.5Z"/><path fill="#a95b11" d="M169.3 174.6h-.3c-.3 0-.6 0-.8-.1.4 0 .7.1 1.1.2Z"/><path fill="#a95b11" d="M101.4 186c-.5 6.8-.4 13.7-.6 20.5 0 3-.9 3.6-3.7 2.7-.2 10.8-.3 21.5 2.6 32 .8 2.8.2 5.5-2.8 7.2 1.4 2.2 2.8 4.3 4.1 6.3 5.6 0 10.3 1.8 14.3 5.4.6.5 1.1 1.1 1.6 1.7.9 1 1.8 1.9 3 2.5 3 1.5 4.2 4.2 5.4 7 2.3 5.4 2.1 11.1 2.4 16.9.4 6-1.4 10.8-5.1 15.2-1.5 6.1-6.1 9.5-11.1 12.4-4.3 2.5-9 3.5-13.3 2.7-1.8 4.2-3.4 8.1-5 12-.2.5-.7 1.2-.5 1.5 2.3 5.5.2 11.1.4 16.7v4.3c.2 0 .5.2.7.3.9-1.1 1.8-2.1 2.6-3.2 1.6-2.4 3.7-4.1 6.7-3.2 2.7.7 3.9 2.8 4 5.7 0 2.4.4 4.8.4 7.2v16.1c2.4-1 3.9-2 5.6-2.3 2.8-.5 5.1.9 5.8 3.6 1.7 6.1 3.2 12.3 4.6 18.4.6 2.5.8 5.1 1.3 8.6 2.3-2.3 4.1-3.9 5.8-5.8 2.5-2.9 4.9-6 7.3-9.1 2.1-2.7 4.1-3.6 6.9-2.8 2.2.6 3.7 2.9 3.8 6.2v17.8c0 1 0 1.9.2 3.7 2.8-3.2 5.3-5.7 7.4-8.4 2.5-3.3 4.5-4.6 7.3-3.7 2.2.7 3.2 3.3 3.5 7.2.6 6.7 1.5 13.5 2.3 20.2.3 0 .6.1 1 .2 1-1.2 2-2.6 3.1-3.7 3.8-3.6 7.8-7.1 11.6-10.6 2-1.9 4.4-2.2 6.7-1.2 2.4 1 3.1 3.3 3.1 6 0 4.8.4 9.6.7 14.8 2.4-1.6 4.7-3.1 6.9-4.6 4.3-3 8.6-6.1 13-9 3.5-2.4 7.1-2.1 8.8.7.9 1.6 1.2 3.6 1.3 5.5.1 2.4-.2 4.9-.4 7.4.2.1.4.3.7.4 2.4-2.3 4.8-4.7 7.2-7 .5-.5.9-1.2 1.4-1.7 1.6-1.8 3.3-3.5 5.9-2.7 2.6.8 3.8 2.9 4.5 5.5 1 4 2.4 7.9 3.7 12.3 4.5-5.2 8.8-10 12.7-15 4.1-5.2 9-4.9 11.8 1.1 1.3 2.7 2.2 5.7 3.3 8.5.3.8.8 1.6 1.4 2.8.8-1.2 1.4-2 1.9-2.8 3.4-5.1 7.8-5.5 12.6-1.5 2.8 2.4 6 4.3 9 6.4 2.3 1.6 3.5.6 4.4-1.6 1.7-3.9 3.2-7.9 5.1-11.7 2.8-5.8 7.7-6.1 11.7-1.1 3.8 4.8 7.9 9.4 12.5 14.8 2.1-4.5 3.9-8.4 5.8-12.4 1.1-2.3 2.1-4.7 3.6-6.9 2.7-4 6.6-4.4 9.6-.7 2.3 2.8 3.9 6.1 5.7 9.2.5.4 1 .9 1.6 1.3 1.6 1.3 3.2 2.7 4.9 4.1.2-1.4.4-2.6.5-3.7 1-7.5 3.9-14.8 3.3-22.6 0-.8.9-1.7 1.3-2.6 1.3-2.5 3.9-3.7 6.9-3.1 5.5 1.2 10.9 2.5 16.4 3.7v-8.5c0-.9 0-1.7.4-2.3.4-.8 1.2-1.2 2.4-1.3.7-1.1 1.6-1.7 2.5-2 1-.3 2.1-.2 3.2.1 1.4.4 2.8.9 4.2 1.4-.2-.9-.5-1.7-.7-2.5-2-5.8-5.5-10.7-9.4-15.3-.7-.8-1-1.9-1.5-2.8-5.4.7-10.9 1.6-16.3 2.2-1.8.2-3.6.3-5.4.4-10.2.6-20.4.6-30.5.6-10.4 0-20.7-.3-31.1-.4h-14.7c-12.9 0-25.7 0-38.6-.1-1.3 0-2.4-.2-2.9 1.7-2.1 7.3-4.4 14.5-6.7 21.7-.3 1-1.4 2.2-2.2 2.3-.8 0-1.8-1.2-2.5-2-2.8-3.3-5.4-6.6-8.1-9.9-.3.1-.6.2-.9.4-.7 2.7-1.4 5.5-2.2 8.2-.8 2.9-2.3 3.4-4.6 1.3-1.6-1.5-3.3-3-4.9-4.5-5-4.7-10-9.3-15-14-2.8-2.7-5.4-5.6-8.5-8.8-1.6 4.8-2.9 8.8-4.4 12.8-.3.9-1.4 2.2-2 2.2-.9-.1-2.1-1.1-2.5-2-.8-1.4-1.2-3.1-1.5-4.7-1.7-10.8-3.3-21.6-5-32.3-.5-3.3-1.3-6.6-2-10.3-1.1.7-1.7.9-2.1 1.4-3.3 3.7-6.5 7.5-9.9 11.2-.6.7-1.7 1.4-2.4 1.3-.7-.1-1.2-1.4-1.6-2.2-.2-.5-.3-1.1-.3-1.6 0-8-.4-15.9 1.3-23.8.4-1.6.5-3.3.9-5.6-3.2 1.8-5.7 3.4-8.3 4.7-2.5 1.3-3.9.5-4-2.4 0-1.9.1-3.9.7-5.7 2.1-6.1 4.5-12.2 6.8-18.2 1.6-4.1 3.4-8.1 5.4-12.8-3.7.9-6.7 1.8-9.8 2.3-1 .2-2.5 0-3.2-.8-.5-.5-.4-2.2 0-3 1.6-3.5 3.2-6.9 5.1-10.2 2.6-4.7 5.4-9.2 8.5-14.5-3.5.5-6.2 1-8.9 1.2-1.2 0-2.9 0-3.5-.8-.6-.7-.4-2.5 0-3.5.7-1.8 1.7-3.5 2.7-5.1 4.1-6.5 9.1-12.3 14.8-17.6 2-1.9 3.7-4 6.1-6.6-3.1-.2-5.4-.2-7.6-.6-1-.2-2.3-.8-2.6-1.6-.3-.7.4-2.2 1.1-2.8 1.7-1.6 3.6-2.9 5.4-4.3 6.5-5.3 13-10.7 19-15.6-1.6-2.8-3-5.1-4.2-7.4-.9-1.5-.4-2.7 1.2-3.3.7-2.6 3.7-4.3 7.3-3.6 4.9 1.1 9.7 2.5 14.5 3.9 1.4.4 2.7 1.1 4.1 1.6 1.5-2.5 3.1-4.9 4.4-7.4.2-.4.4-.7.6-1.1 1.2-2.5 2.7-3.9 5.6-3.1 1.9-.1 4.1-.9 5.8-.3 6.6 2.4 13 5.3 19.5 8 .3-1 .6-2.1.8-3.1 0-.4.2-.7.2-1.1.5-2.9 1.8-3.8 4.5-2.9.9.3 1.7.7 2.5 1 1.4-.3 3.2-1.3 4.3-.9 8.1 3.5 16 7.3 24 11.1.3.1.5.5.7.8 0 0 .2-.2.3-.2.4-.3.8-.6 1.1-.9l.4-.4c1.6-2.1 3.5-2.4 5.7-1.1 3.2-1.1 4.9-.5 7.2 2.3 1.3 1.6 2.9 2.9 4.4 4.4 3.1-2.8 6.3-5.5 9.4-8.3 1.5-1.3 2.8-2.1 4.5-.5.6-.1 1.4-.6 1.9-.3 3.7 1.8 6.4 4.7 7.8 8.6 3.7-2.3 7.3-4.6 11-6.8 1.4-.8 2.9-1.4 4.4-2.1 2.1-2 4.3-2.3 6.2-.3 1.6 1.6 2.8 3.6 4.1 5.5 1-.5 2-1 3-1.4.1 0 .3-.1.4-.2 1.8-.6 3.5-1.1 5.3-1.6 1.8-.5 3.6-1 5.3-1.5 6-.5 9.1 3.9 12.7 7.5.6.6.9 1.4 1.4 2 .5-.2 1.1-.4 1.6-.6l.6-10.5c.1-2.5.2-5.1.3-7.6-1.8.2-3.9 1.6-5.5.3-.4-.3-.7-.7-1-1.4-.1-.2-1-.1-1.5 0-1.6.3-3.2.7-4.8 1.1-4.8 1-9.5 2-14.3 3.1-.4 0-.7.1-1.1.2-1.3.1-2.6.3-3.9.4-.4 0-.7 0-1.1.1-.9.1-1.7.3-2.6.4h-.4c-7-.1-13.9-.3-20.9-.4h-2.8c-3.1-.2-6.3-.3-9.4-.5H320c-1.1-.1-2.2-.3-3.4-.4-.5 0-1.1-.1-1.6-.2-1.5-.2-3-.3-4.5-.5h-1.1c-5.7-.2-11.5-.3-17.2-.5-1.5 0-3 0-4.4-.1-5.2-.3-10.4-.7-15.6-1h-1.7c-7-.4-14.1-.7-21.1-1.1h-2.2c-1.9-.1-3.7-.3-5.6-.4-.9 0-1.9 0-2.8-.1-10.2-.2-20.4-.3-30.6-.5h-2.8l-9.5-.5h-1.1c-2-.2-4.1-.3-6.1-.5H187c-5.3-.6-10.6-1.2-15.9-1.7l-3-.3c-.4 0-.7-.1-1.1-.2-8.3-1.1-16.7-2.2-25-3.2h-1.1c-1.1-.2-2.2-.3-3.3-.5h-1.1c-6.7-.6-13.3-1.9-19.4-4.4-3.7-1.5-7.3-3.4-10.7-6-3.3 8.6-5.5 17.1-6.1 25.8Z"/><path fill="#a95b11" d="M370.7 190.5c1.8-.5 3.6-1 5.3-1.5-1.8.5-3.6 1-5.3 1.5ZM101 254.8c5.6 0 10.3 1.8 14.3 5.4-3.9-3.6-8.7-5.5-14.3-5.4ZM394.9 407.9v-6.4 6.4ZM294.7 192.8c-.3.3-.8.6-1.1.9.4-.3.8-.6 1.1-.9ZM397.7 395.8c-1.2.1-2 .6-2.4 1.3.4-.8 1.2-1.2 2.4-1.3ZM172.3 174.9l-3-.3h-.3.3l3 .3Z"/><path fill="#f5b204" d="M146.2 110c-1.3 0-2.4-.5-3.2-1.2l-.6-.6c-.5-.6-.9-1.3-1.1-2.2-2.7-10.9-6.8-21.4-6.6-33 .1-7.4-1.1-14.9-1.5-22.3-.1-2.8.3-5.7.4-8.6-3.7 10.6-8.1 21-10.9 31.9-4.4 17.1-7.1 34.5-5.7 52.3.7 8.7 5 15.9 11.9 21.4 11.5 9.1 24.8 14.1 38.9 17.1 10.8 2.2 21.8 3.4 32.7 4.7 7.8.9 15.6 1.2 23.4 1.7 7.4.5 14.9.8 22.4 1.1 5.9.3 11.8.4 17.7.6 6.6.2 13.3.5 19.9.5 8.4 0 16.8-.2 25.2-.5 13.2-.6 26.5-1.2 39.7-2.3 8.1-.7 16.4-1.5 24.3-3.5 5.9-1.5 11.2-4.9 16.8-7.5l1.2-.6v-1.6c-2.5-1.1-3.6-2.6-4-4.6-.2-1.2-.2-2.5 0-3.9 1.3-12.9 1.1-25.8-1.2-38.6-.9-5-1-10.1-1.9-15.1-1.1-5.9-2.5-11.7-4.1-17.5-1-3.5-2.4-6.9-3.7-10.4-.6 5.9-1.3 11.7-2.2 17.4-.7 3.8-1.5 7.6-2.4 11.4-.5 1.9-1 3.8-1.6 5.6-1.2 3.7-2.6 7.4-4.2 11-1.7 3.8-3.3 7.6-4.9 11.4-1.1 2.5-2.7 4.5-5.8 4.2-.8 0-1.5-.8-2.2-1.2-.8 0-1.6-.2-2.4-.3h-.8c-.2-.8-.4-1.5-.7-2.3h-.4c-5-1-5.1-3.7-5.5-9.1-.3-3.8 0-7.6-.1-11.3-.2-3.9-.7-7.8-1.1-11.8l-.6-1.8v-.8c0-.1-.2-.2-.2-.3v-.2c-.1 0-.3-.1-.4-.2-.5.6-1.4 1-1.6 1.7-3.5 11.4-9.9 21.3-16.8 30.9-.5.7-1 1.4-1.4 2.1-3 4.7-4.4 5.2-9.5 3.5-1.3.3-2-.2-2.6-.9v-.1s0-.1-.1-.2c-.2-.2-.3-.5-.4-.7 0-.2-.2-.3-.3-.5-.2-.3-.4-.6-.6-.8-3-.2-5.1-1.7-6.1-4.4-2.7-7.1-5.3-14.3-8-21.5-1.3-3.4-2.6-6.7-3.9-10-.2-.5-.8-.9-1.2-1.3-.6.8-1.2 1.6-1.8 2.3-1.6 3.3-2.7 6.9-4.8 9.8-4.2 5.8-8.8 11.4-13.3 16.9-2 2.5-4.4 4.6-6.8 6.8-2.8 2.6-6.4 2.1-8.4-1.1-.9-1-1.7-2-2.6-3-3.3-.3-4.5-2.7-5.9-5.2L225.1 77c-.4-.8-1.2-1.4-1.7-2.1-.3.6-.5 1.3-.8 1.9-.1 1.2-.1 2.5-.4 3.6-3.9 12.8-8.9 25.1-16 36.4-1 1.5-1.7 3.3-2.9 4.6-1.5 1.6-3.7 1.4-5.1-.2-1.3.4-2.2.4-2.8-.1-.6-.5-.9-1.4-.9-2.6 0-.4-.1-.7-.2-1.1-.3-.9-.6-1.8-.9-2.8-3-.6-5-3-5.6-6.6-2-11.8-4-23.7-6-35.5-.3-1.8-.7-3.5-1.1-5.2-1.7 3.4-3.5 6.8-5.2 10.1 0 .6.2 1.2 0 1.7-2.1 5.1-4 10.3-6.3 15.3-3 6.5-6.2 13-9.4 19.4-1.6 3.2-4.1 4.1-7.6 3.1-2.5 2-3.8 1.6-4.5-1.5-.2-.8-.3-1.6-.4-2.4 0-.4-.2-.7-.2-1.1 0-.1 0-.2-.1-.3-.2-.5-.4-1-.6-1.4Z"/><path fill="#f5b204" d="M349.9 126.7c0-.3-.1-.5-.2-.8-.1-.5-.3-1-.4-1.5.2.8.4 1.5.7 2.3ZM146.2 110c.2.5.4 1 .6 1.4-.2-.5-.4-1-.6-1.4ZM253.2 121.4c-.9-1-1.7-2-2.6-3 .9 1 1.7 2 2.6 3ZM341.6 90.4v-.8.8ZM308.5 125.2c.1.2.3.5.4.7-.2-.2-.3-.5-.4-.7ZM349.3 124.5h-.4.4ZM341.5 89.1c-.1 0-.3-.1-.4-.2.1 0 .2.1.4.2ZM349.3 124.5zM342.1 92.2l.1.1-.1-.1z"/><path fill="#f5b204" d="M350.8 126.8h-.8l-.2-.8c0 .3.1.5.2.8h.8ZM309.1 126.1v.1-.1Z"/><path fill="#eec481" d="M354 289.5c-4.3 0-9-.4-11.3-5.3-.2-.4-1.3-.5-1.9-.7-6.2-1.3-12.6-2-18.5-4-3.9-1.3-7.2-4.4-10.7-6.6-1.1 2.2-2.2 4.5-3.3 6.7 0 .3-.1.7-.2 1l-.6 1.8c-.2.6-.5 1.1-.8 1.6-1.7 2.8-4.4 4.7-7.5 6.2-6.8 3.2-14.1 3.9-21.4 5-4.2.7-8.3 1.6-12.5 1.9-3.2.3-6.4-.4-9.6-.2-10.5.4-20.5-1.9-30.3-5.2-2.3-.8-4.6-1.9-6.8-3.1-1.7-.9-2.6-2.4-2.6-4.1v-1.1c0-.4.2-.7.3-1.1.2-.6.6-1.1 1-1.6.9-.7 1.7-1.4 2.6-2.1-.2-2.1-1.4-3.3-3.3-4.3-5.6-2.7-11-5.6-16.5-8.5-.6-.3-1.4-.5-2.1-.6-4.6-.6-5.9-2.1-5.9-6.7h-.2c-.6 0-1.2.2-1.7 0-.8-.4-1.5-1.1-2.3-1.6.6-.7 1.1-1.7 1.9-1.9 6.9-2.1 13.3-5.3 19.2-9.4 10.6-7.5 22.1-13 35-15.7 11.7-2.5 23.4-3.3 35.3-2.2 7.4.7 14.7 1.7 21.5 4.8 2.1 1 4.1 2.1 6.1 3.2.1-.2.3-.3.4-.5-1.1-1.4-2.2-2.8-3.4-4.1-1 0-2.2.6-2.9.2-7-3.3-14.4-5.1-22.1-5.5-9.1-.5-18.2-1.5-27.2-1.5-7.5 0-15 1.3-22.5 1.9-1.9.1-3.8-.3-5.7-.5-2 .7-4 1.5-6.1 2.1l-2.1.6c-.9.2-2.1-.7-3.2-1 .7-.8 1.2-2 2.1-2.4 6.8-2.9 14-4.6 21.3-5.7 19.3-2.9 38.4-3.6 57.4 1.6-1.2-1.1-2.2-2.9-3.5-3.3-8.5-2.3-17-4.5-25.9-4.6-7.1 0-14.2-.6-21.3-.4-3.8.1-7.5 1.6-11.3 2.2-1.1.2-2.3-.5-3.5-.7-.4.1-.7.3-1 .4-.3.1-.5.2-.8.3-.6.3-1.3.5-1.9.8-.3.1-.7.3-1 .4-.5.2-1.1.4-1.6.5-.8.2-1.8-.6-2.8-1 .5-.8.8-1.9 1.5-2.3 3.8-1.7 7.5-3.5 11.5-4.8 14.4-4.8 29.1-4.8 43.8-1.8 5.3 1.1 10.5 2.4 16.5 3.8-1.1-2.4-2-4.3-2.9-6.3-1.1-.2-2.2-.2-3.2-.6-5.1-2.4-10-4.9-15.1-7.3-3.6-1.6-7.3-3-10.9-4.5-.6 2-1.3 3.9-1.9 5.9-.2.7-.4 1.3-.6 2-.5 1.7-1.3 2.8-3.3 2.7-1.8 0-3.9.7-5.4 0-7-3.2-13.8-6.7-20.7-10.1-.4-.2-.9-.3-1.4-.4s-.3 0-.5 0c-1.8 3.1-3.6 6.2-5.3 9.3-.9 1.7-2 2.6-3.9 2-1.4.3-2.9.9-4.3.9-3.6-.2-7.3-.7-10.9-1.1-7.6 6.5-15.3 12.9-23 19.5 1.4.2 2.8.3 4.1.4 4 .5 4.9 2.6 2.5 5.8-1.6 2.2-3.5 4.3-5.3 6.4-.4 1.1-.7 2.2-1.3 3.2-3.1 4.7-6.3 9.3-9.4 14-.6 1-1 2.2-1.4 3.3h3.3c4 0 4.4.5 3.8 4.6 0 1.3.2 2.9-.3 4-2.6 5.2-5.4 10.2-8.1 15.3-.2.4-.3.7-.4 1.1 0 .3-.1.5-.2.8l-.3 1.2c.1 0 .3 0 .4-.1.3 0 .6-.2.9-.2.3 0 .6-.2 1-.3.8-.2 1.5-.4 2.3-.3 1.5 0 2.9.9 4.4 1.4 2.5 1.3 2.6 3.2 1.5 6.5-3 8.9-5.6 17.8-8.4 26.7 1.4-.6 2.8-1.4 4.2-1.1.5.1 1 .3 1.5.7 3.2 1.3 4.2 3.5 3.9 6.7-.6 6-1 12-1.5 18.1 1.5-1.3 2.9-2.5 4.4-3.8 1.6-1.4 3.2-2.6 5.5-1.9 3.1-1.6 6 .3 6.7 4.2 1.6 9.6 3.3 19.1 5 28.7.1.7.8 1.3 1.2 2 1.1-.2 2.1-.4 3.2-.5.2 0 .3-.1.5-.2l.9-.3c.4-.1.9-.2 1.3-.2h.4c1.2.1 2.4.7 3.6 1.7 2 1.8 4.3 3.2 6.5 4.7 4.3 3 8.6 6.1 12.9 9.1.4.2.8.4 1.1.6 4.3-4.9 9.8-4.7 16.6.7 1.4-2.8 2.8-5.5 4.2-8.2-8-1.1-15.9-2.1-23.9-3.5-9.7-1.7-21.2-14.8-16.4-29 2.1-6.2 6.1-10.8 13.2-11.6 9.5-1.1 18.9.2 27.9 3 7.7 2.4 15.6 3.9 23.7 3.8 10-.1 20-.3 30-.5 1.3 0 2.6-.1 3.9-.2 21.2-1.8 42.4-3.5 63.6-5.5 9-.8 18-2.3 26.9-3.4-2.8-2.4-5.5-4.8-8.3-7.1-1.7-1.3-3-2.7-2.8-5-.8-.3-1.5-.6-2.3-.9-2.3-.9-4.6-1.8-6.9-2.4-1.7-.5-3.5-.6-3.9-2.8-.5-.2-1.2-.2-1.5-.5-3.4-4.1-7.3-1.8-11.1-1.1.2.4.4.9.6 1.3.3.7.6 1.5.7 2.3.1.8-.6 1.7-.9 2.6-.8-.4-2-.6-2.4-1.3-.3-.4-.6-.9-.8-1.3-.3-.5-.5-.9-.8-1.4-.5-.9-1-1.9-1.5-2.8-3.3.2-6.7.4-10 .4-.7 0-1.4-.7-2.1-1-4 .6-4.4.4-4.2-2.5v-4.6c-.1-1.4.2-2.1.7-2.5.6-.5 1.6-.5 2.5-.5h1.1c14.1.4 27.4-3.4 40.5-8 1.7-.6 3.3-1.6 4.9-2.4-2.4.1-4.8.3-7.1.4-9.6.2-19.2.6-28.8.5Zm-49.5 22.3c-.8 1.9-1.3 3.9-2.1 5.7-.3.6-1.3 1.3-1.8 1.2s-1.4-1-1.5-1.6c-1.1-6.2 6-14.4 12.4-14.6 3.2.8 6.5 1.5 9.6 2.4.7.2 1.1 1.4 1.6 2.2-.8.4-1.7 1.3-2.4 1.2-2.3-.3-4.5-1.2-6.8-1.5-5.4-.9-6.9 0-9 5Zm18.9 6.4c-.4 1-2 1.6-3.6 2.7-3.1-1.7-6-3.1-8.7-4.8-.7-.5-1.1-2.3-.7-3.1.4-.8 2.1-1.5 2.9-1.3 3 .8 5.9 1.8 8.6 3.2.9.5 1.9 2.4 1.6 3.3Zm17-2.8c2.4-1.5 4.9-2.8 7.5-4 1.6-.7 3 0 3.8 1.7.7 1.7.2 3-1.3 3.7-2.6 1.3-5.3 2.4-8.2 3.6-1.2-.8-2.6-1.2-2.9-2.1-.3-.8.3-2.5 1-3ZM192.1 258.5h-.2.2Z"/><path fill="#eec481" d="M166.7 282.1c-.3 0-.6.2-.9.2.3 0 .6-.2.9-.2ZM311.4 272.8c-1.1 2.2-2.2 4.5-3.3 6.7 1.1-2.2 2.2-4.5 3.3-6.7ZM217.3 280.6c.9-.7 1.7-1.4 2.6-2.1-.9.7-1.7 1.4-2.6 2.1ZM227.6 214c-.4.1-.7.3-1 .4.3-.1.7-.3 1-.4ZM340.9 299.4c.6-.5 1.6-.5 2.5-.5-.9 0-1.9 0-2.5.5ZM223.8 215.5c.7-.3 1.3-.5 1.9-.8-.6.3-1.3.5-1.9.8Z"/><path fill="#ce5e26" d="M410.3 337.3c-8.5.7-17 1.6-25.6 2.6-5.8.6-11.4 0-17-1.2-.4 0-.7-.5-1.1-.8-6.2.5-12.5 1-18.7 1.5-3.4.3-6.8.5-10.3.8-3.2.2-6.4.5-9.7.7-12.8.9-25.6 1.5-38.4 2.2-2.9.2-5.7 0-8.6.2-11 .8-21.6-.8-32.3-3.7-7.3-2-15.1-2.9-22.6-3.3-8.4-.4-13.7 5.2-13.9 13.2.6.7 1.5 1.3 1.9 2.1 2.3 5.8 7.1 8.5 12.5 10 10.8 3 21.8 5.1 33.1 5.7 8.5.5 16.9 1.3 25.3 1.6 10.2.4 20.5.6 30.8.6 11.2 0 22.4-.3 33.5-.5 12.5-.3 25.1-.7 37.6-1.1 1.7 0 3.3-.1 5-.2 5-.3 9.9-.6 14.9-.9l.9-1.8.3-.6c1.1-1.8 1.3-3.3-.5-4.9-2-1.8-1.6-4.2-.7-6.4-1.2-.2-2.4-.6-3.6-.7h-.5c-10.3 0-20.6-.2-30.8.1-16.3.5-32.5 1.4-48.8 2.1-10.4.5-20.7 1-31.1 1.3-20 .5-40 1-59.8-2.6-1.3-.2-2.7-.7-3.8-1.5-.6-.4-.4-1.8-.6-2.7.9-.2 1.8-.5 2.7-.4.8 0 1.5.8 2.3.9 8.3.9 16.5 2.2 24.8 2.3 14.8.3 29.6.3 44.4-.1 18.1-.5 36.2-1.7 54.3-2.5 11.6-.5 23.1-.8 34.7-1 5.1 0 10.2 0 15.2.8 4.9.8 8.6-.6 11.6-4.4-.3-.9-.7-1.7-1-2.6-1.3-3.7-2.8-5-6.5-4.7Z"/><path fill="#ce5e26" d="M337.6 340.2c3.4-.3 6.8-.5 10.3-.8-3.4.3-6.8.5-10.3.8Z"/><path fill="#76400d" d="M354.2 421.5c-3-3.7-6.9-3.4-9.6.7-1.4 2.1-2.4 4.5-3.6 6.9-1.9 3.9-3.7 7.9-5.8 12.4-4.6-5.4-8.7-10-12.5-14.8-4-5.1-8.9-4.8-11.7 1.1-1.8 3.8-3.4 7.8-5.1 11.7-.9 2.2-2.2 3.2-4.4 1.6-3-2.1-6.2-4-9-6.4-4.7-4-9.2-3.7-12.6 1.5-.5.8-1.1 1.6-1.9 2.8-.6-1.2-1.1-2-1.4-2.8-1.1-2.8-2-5.8-3.3-8.5-2.8-6-7.8-6.2-11.8-1.1-4 5-8.3 9.7-12.7 15-1.3-4.4-2.7-8.3-3.7-12.3-.7-2.6-1.8-4.7-4.5-5.5-2.6-.8-4.4.9-5.9 2.7-.5.6-.9 1.2-1.4 1.7-2.4 2.4-4.8 4.7-7.2 7-.2-.1-.4-.3-.7-.4.2-2.5.5-4.9.4-7.4 0-1.9-.4-3.9-1.3-5.5-1.7-2.9-5.3-3.1-8.8-.7-4.4 2.9-8.6 6-13 9-2.2 1.5-4.5 3-6.9 4.6-.3-5.2-.7-10-.7-14.8 0-2.7-.7-5-3.1-6-2.2-1-4.7-.6-6.7 1.2-3.8 3.6-7.8 7.1-11.6 10.6-1.2 1.1-2.1 2.4-3.1 3.7-.3 0-.6-.1-1-.2-.8-6.7-1.7-13.4-2.3-20.2-.3-3.9-1.3-6.5-3.5-7.2-2.8-.8-4.8.4-7.3 3.7-2.1 2.8-4.5 5.2-7.4 8.4 0-1.8-.2-2.7-.2-3.7v-17.8c0-3.3-1.5-5.6-3.8-6.2-2.8-.8-4.8 0-6.9 2.8-2.4 3.1-4.8 6.1-7.3 9.1-1.6 1.9-3.5 3.6-5.8 5.8-.5-3.5-.8-6.1-1.3-8.6-1.4-6.2-2.9-12.4-4.6-18.4-.8-2.7-3-4.1-5.8-3.6-1.7.3-3.3 1.3-5.6 2.3v-16.1c0-2.4-.4-4.8-.4-7.2 0-2.9-1.2-4.9-4-5.7-3-.8-5.1.8-6.7 3.2-.8 1.1-1.7 2.2-2.6 3.2-.2 0-.5-.2-.7-.3v-4.3c-.2-5.6 1.9-11.2-.4-16.7-.2-.4.3-1 .5-1.5 1.6-3.9 3.2-7.7 5-12 4.3.8 9-.2 13.3-2.7 5-2.9 9.6-6.3 11.1-12.4-11.4 7.5-22.1 8.1-31.6-3.3-4.5 10-8.9 19.8-13.4 29.7 4.2.5 5.4-.1 7.1-3.4.6-1.2 1.2-2.3 1.6-3.5.5-1.4 1.3-2.9 2.9-2 .7.3.9 2.5.5 3.5-1.1 2.8-2.5 5.6-4 8.2-2.5 4.6-5.1 9.1-7.6 13.7.2.1.4.3.6.4 1.7-1.6 3.3-3.4 5.1-4.8.5-.4 1.3-.6 2.1-.7.3 0 .6-.1.9-.2.1 0 .3 0 .4-.1.1.4.3.9.5 1.3l.3.9c.1.4.2.9 0 1.3-1.1 5.7-2.4 11.4-3.8 17-1.4 5.7-1.7 11.4-1.1 17.7.9-1.2 1.3-1.9 1.9-2.6 4.2-4.6 8.5-9.3 12.8-13.8.6-.6 2-1 2.6-.7.7.3 1.2 1.6 1.3 2.4.2 1.8.2 3.7-.2 5.5-1.7 8.5-.6 16.9.9 25.3.2.9 1.1 2.3 1.8 2.3.9 0 2.2-.7 2.8-1.5 1.8-2.7 3.2-5.6 5.1-8.2.5-.6 1.3-1 2.1-1.4.5-.2 1-.4 1.4-.7.1.3.3.6.4 1 .5 1 1 1.9 1.1 2.9.2 3.7 0 7.4.1 11.1.4 6.3 3.4 11.5 7.7 16.4 1.8-2.4 3.1-4.7 4.8-6.5 3.2-3.4 6.6-6.7 10-9.9.7-.7 2.3-.9 3.2-.6.7.3 1.1 1.7 1.3 2.7.2.7-.2 1.5-.2 2.2 0 5.1-.4 10.3 0 15.4.2 3 1.5 5.9 2.4 9.1 3-4.9 5.6-9.4 8.5-13.7.6-.9 2.4-1.9 3.1-1.5 1.1.6 2 2 2.4 3.2.3 1.1-.1 2.5-.2 3.8-.4 4.7-.6 9.4 1.3 13.9.8 2 1.7 2.5 3.7 1.1 5.3-3.9 10.7-7.6 16.2-11.2 1.6-1.1 3.6-2 5.5-2.3 2.8-.5 3.8.6 3.6 3.4-.1 2.6-.7 5.1-.8 7.7-.1 3.4 0 6.9 0 10.7 3.6-2.3 6.9-4.6 10.3-6.5 4.4-2.4 9-4.8 13.6-6.7 2.9-1.2 4.7.3 5.3 3.4.7 3.5 1.1 7 1.8 11 1.6-1.2 2.8-2.2 4-3.1 3.8-2.9 7.6-5.9 11.5-8.7 3.1-2.3 4.5-1.8 5.6 1.9.2.5.3 1.1.4 1.6 1.1 4 2.2 7.9 3.4 12.1.7-.4 1.2-.7 1.6-1l16.5-15.3c.9-.8 1.8-1.6 2.8-2.3 2.3-1.5 3.9-1 4.6 1.6.5 1.9.8 3.8 1.2 5.7 1.1 4.9 2.3 9.7 5.8 14.4 3-3.4 6-6.4 8.6-9.7 2.8-3.7 3-3.8 6.7-1.2 4.1 2.8 8.3 5.4 12.3 8.1 2.8-5.4 5.5-10.7 8.3-15.9 1.7-3.1 2.8-3.3 5.7-1.4 1.2.8 2.4 1.5 3.4 2.4 4.5 3.8 8.9 7.7 13.5 11.7.3-.5.6-.8.8-1.2 2.9-6 5.7-12 8.5-18.1 1.4-3 2.2-3.4 5-1.8 1.4.8 2.9 1.7 4.3 2.5s2.9 1.7 4.3 2.5c-1.9-3.1-3.5-6.4-5.7-9.2Z"/><path fill="#76400d" d="M86.9 341.1c-.3 0-.6.1-.9.2.3 0 .6-.1.9-.2ZM86.9 341.1c.1 0 .3 0 .4-.1.1.4.3.9.5 1.3-.2-.4-.3-.9-.5-1.3-.1 0-.3 0-.4.1ZM114.5 386.6c.5-.2 1-.4 1.4-.7-.4.3-1 .5-1.4.7ZM88.1 343.1c0-.3-.2-.6-.3-.9l.3.9Z"/><path fill="#d39a07" d="M373.4 167.1c-7.9 2-16.1 2.8-24.3 3.5-13.2 1.1-26.5 1.7-39.7 2.3-8.4.4-16.8.5-25.2.5-6.6 0-13.3-.3-19.9-.5-5.9-.2-11.8-.3-17.7-.6-7.5-.3-14.9-.7-22.4-1.1-7.8-.5-15.6-.8-23.4-1.7-10.9-1.3-22-2.5-32.7-4.7-14.1-2.9-27.4-8-38.9-17.1-6.9-5.5-11.2-12.7-11.9-21.4-1.4-17.7 1.3-35.2 5.7-52.3 2.8-10.8 7.2-21.3 10.9-31.9.9-4.6 1.8-9.2 2.6-13.8 0-.4.2-.8.3-1.2-.3.2-.6.3-.9.5-5.2 10-10.3 20.1-14.4 30.5-.1.3-.3.7-.4 1l-2.1 5.7-1.5 4.5c-.5 1.5-.9 3-1.3 4.5-1.3 4.6-2.3 9.3-3 14.1-2.6 16.9-5.8 33.7-5.2 51 .2 5.6.2 11.3 2.6 16.6.7 1.6 1.9 3.2 3.3 4.1 6.8 4.3 14.5 6 22.3 7 7.2.9 14.3 1.5 21.5 2.4 9.9 1.2 19.8 2.7 29.7 3.8 6.2.7 12.5 1 18.8 1.5h15.1c9.9.3 19.9.7 29.8 1.1H256.7c16.2.7 32.3 1.4 48.5 2.3 8.9.5 17.7 1.3 26.5 2h1.1c4.5 0 9 0 13.5.1h4.5c12.6.3 24.5-3 36.4-6.5 1.3-.4 2.9-2 3.1-3.3.5-2.4.7-4.8.9-7.2 0-1 .1-1.9.2-2.9 0-.5 0-1 .1-1.4l-1.2.6c-5.6 2.6-11 6.1-16.8 7.5ZM206 174.4h8.1-8.1Z"/><path fill="#d39a07" d="M391.4 158.9c0 .5 0 1-.1 1.4 0-.5 0-1 .1-1.4ZM120.8 59.2c.1-.3.3-.7.4-1-.1.3-.3.7-.4 1ZM136.3 28.4c0-.4.2-.8.3-1.2 0 .4-.2.8-.3 1.2ZM117.2 69.4l1.5-4.5-1.5 4.5ZM251 175.6H254.4 251ZM331.6 180h1.1c4.5 0 9 0 13.5.1-4.5 0-9 0-13.5-.1h-1.1ZM391.3 160.4c0 1-.2 1.9-.2 2.9 0-1 .1-1.9.2-2.9Z"/><path fill="#010101" d="M245.4 270.9c4.3.7 8.5 1.4 12.8 2 4.7.6 9.3 2.1 14.2-.4 2.4-1.2 4.5-2.6 5.9-4.7 6.1-9.1 6.9-18.9 2.4-28.9-2.4-5.2-5.9-9.5-12.7-8.3-.8.1-1.7 0-2.5 0 0-.2 0-.5-.1-.7-6.5 1.1-13 2.1-19.5 3.4-3.2.6-6.6.6-9.2 3.2-7.2 7.1-7.1 19.9-1.7 27.9 2.6 3.8 6.1 5.9 10.5 6.6Zm21.6-32c3.5-.1 5.5 1.8 5.6 5.4.1 3.3-2 5.8-5.2 5.9-3.9.1-6.9-2.6-6.9-6.3 0-3.4 1.9-4.8 6.5-5Zm-16.3 11.3c2.8-.6 4.4.8 5.1 3.4.4 1.4 1.2 2.8 1.2 4.2 0 3.2-2.2 5.3-4.9 5.2-3.3-.2-6.1-3.4-6.1-7 0-2.8 1.9-5 4.8-5.7ZM346.4 270.2c4.6-.2 9.2.4 13.8 1 7 .9 12.3-1.7 16.3-7.3s5.2-12 4.5-18.7c-.2-1.9-.8-4-1.9-5.6-3.8-5.2-9-7.9-15.6-7.3-7.4-.4-14.4 1.6-21.2 4.2-3.7 1.4-6.5 3.4-7.5 7.7-1.4 5.6-1 11.1.1 16.4 1.7 8 5.4 9.8 11.6 9.5Zm16.1-30.7c3.5 0 6.8 3.3 6.7 6.8-.1 4.1-2.8 6.8-6.8 6.7-4.3 0-7.5-3.2-7.4-7.3 0-4 2.8-6.2 7.5-6.2Zm-13.2 15.1c2.6 0 4.4 2.1 4.5 5.6-.1 1.8-1 3.2-3.3 3.3-2.7.1-5.1-2.1-5.1-4.8 0-2.3 1.7-4.1 3.9-4.2Z"/><path fill="#eec481" d="M392.8 215.3c-5.7-1.3-11.6-1.8-17.4-2.4-3.9-.4-7.9-.3-11.9-.7-1.1-.1-2.1-1.2-3.2-1.8h-.2c-.5 0-1.1.1-1.6.2-.6 0-1.1.2-1.7.2-.4 0-.8.1-1.3.2h-.5c-.4 0-.8.1-1.1.2-.2 0-.4 0-.6.1-6.8 1.3-13.4 3.1-19.8 5.6-.2 0-.4.2-.7.3-2.6 1-5.2 2.1-7.7 3.2-1.1.5-2.1 1-3.2 1.5-1.6.8-3.2 1.6-4.7 2.4-3.1 1.7-6.2 3.5-9.3 5.4 5 4.7 5.3 10.9 6.9 16.6 2.5-1.4 4.7-2.8 7-4 7.1-3.5 14.2-7.2 21.5-10.2 9.2-3.7 19-4.2 28.9-3.5 10.7.8 21.4 1.6 31.3 6.3 4.1 1.9 8.3 3.7 12.4 5.5-.4-3.5-3-5.4-5.8-6.8-10.3-4.9-20.9-8.6-32.4-9.4-1 0-1.9-1-2.9-1.5-1.2 0-2.3 0-3.5.1h-4.6c-5.1.2-10.2.4-15.2 1-3.5.4-7 1.1-10.5 2.1-6.4 1.9-13.3 2.5-18.8 6.9-1.4 1.1-2.8 2.2-4.4 2.9-.7.3-1.8-.3-2.7-.5.2-.8.4-1.7.7-2.4.2-.4.7-.5 1.1-.9 6.8-6 15.3-7.8 23.7-10 10.1-2.7 20.3-2.8 30.6-2.9 8 0 16.1.5 24 1.5 4.2.5 8.3 2.5 12.4 3.9-4.1-4.5-9-8.1-14.9-9.4Z"/><path fill="#eec481" d="M332.9 217.4c.2 0 .4-.2.7-.3-.2 0-.4.2-.7.3ZM353.3 211.5c.2 0 .4 0 .6-.1-.2 0-.4 0-.6.1ZM366.8 223.2h3.3-3.3ZM358.6 210.7c.5 0 1.1-.1 1.6-.2-.5 0-1.1.1-1.6.2ZM416 240.7ZM355.1 211.2h.5-.5ZM360.3 210.5zM356.8 210.9ZM374.9 223c-1.2 0-2.3 0-3.5.1 1.2 0 2.3 0 3.5-.1Z"/><path fill="#c6a46d" d="M404.3 267c-12.8 5.3-26.3 8-40.1 7.6-12.5-.3-24.9-1.9-37.4-2.9-4.8-.4-8.9-2.4-12.6-5.3-.9-.7-1.9-1.4-2.8-2v8.5c3.6 2.3 6.8 5.3 10.7 6.6 6 2 12.3 2.7 18.5 4 .7.1 1.7.2 1.9.7 2.3 4.9 7 5.3 11.3 5.3 9.6.1 19.2-.2 28.8-.5 2.4 0 4.8-.3 7.1-.4 3.7-1.9 6.9-4.4 9.2-8.8-1.8.5-2.9.8-4 1.1-1.5.3-3.1.7-4.6.6-.7 0-1.4-1.1-2.1-1.7.7-.6 1.3-1.8 2-1.8 9.2-.7 17.1-4.6 24.1-10.3 2.7-2.2 5-4.9 7.5-7.3-.2-.2-.4-.4-.6-.5-5.7 2.4-11.3 4.9-17 7.3ZM198 265.1c.7.1 1.5.3 2.1.6 5.5 2.8 10.9 5.8 16.5 8.5 1.9.9 3.1 2.2 3.3 4.3 1.6.5 3.2.9 4.8 1.4 19.8 6 40 8.4 60.5 4.6 5.9-1.1 11.8-3.1 17.4-5.3 3.5-1.3 5.8-7.7 4.7-11.1-6 5.7-13.4 8.1-21.3 9.3-11.8 1.8-23.5.2-35.1-1.5-12.5-1.9-23.8-7.2-34.8-13.2-3.8-2-7.7-3.5-11.7-4.2-2-.4-4-.6-6.1-.5s-4.2.2-6.3.6c0 4.6 1.3 6 5.9 6.7ZM198.4 257.9a33.6 33.6 0 0 1 0 0Z"/><path fill="#c6a46d" d="M198.4 257.9c2.1 0 4.1.2 6.1.5-2-.4-4-.6-6.1-.5Z"/><path fill="#eec481" d="M305.2 204.6c-1.8-.4-3.6-1-5.2-1.9-2.5-1.3-4.8-1.2-7.1.2.4 1.5.8 2.9 1.3 4.4.4 1.5.8 2.9 1.3 4.4.1.5.3 1.2.6 1.5 4.6 3.5 8.1 7.8 10.6 13.1 27.3-16.5 56.2-24.6 88.5-18.2-1.5-2.2-2.6-3.9-3.7-5.5-2.3.7-4.4 1.3-6.5 2-3.3 1.6-5.4-1-8-2.1 0 0-.2-.1-.2-.2-3.6-6.2-8.7-4.4-13.8-2.7-.7.3-1.6 0-2.5 0-2 .9-4.1 2.5-6.1 0-.6 0-1.2.2-1.7 0-5.6-2.4-10.1.2-14.6 3.1-3.2 2.1-7.2 1.7-10.6-1.5-2.1-1.9-3.6-1.6-5.5-.2-1.5 1.1-3 2.3-4.7 2.9-.7.2-1.5.3-2.2.2h-2.4l-3.3.6c-1.4 0-2.8.4-4.2.2Z"/><path fill="#a95b11" d="M391.8 367.7c-1.7 0-3.3.2-5 .2-12.5.5-25.1.8-37.6 1.1-11.2.3-22.4.5-33.5.5-10.3 0-20.5-.2-30.8-.6-8.5-.3-16.9-1.1-25.3-1.6-11.3-.6-22.3-2.7-33.1-5.7-5.4-1.5-10.2-4.2-12.5-10-.3-.8-1.2-1.4-1.9-2.1-.1.4-.3.9-.4 1.3-.4 8 6.4 17 14.4 19 8.3 2.1 16.7 3.2 25.2 3.2 13 0 26.1.1 39.1.3 15.2.1 30.4.4 45.5.5 10.2 0 20.4.1 30.5-.4 10.5-.6 21-1.7 31.4-3 3.4-.4 6.5-2.3 9.8-3.6h-1.1c-5 .3-9.9.6-14.9.9Z"/><path fill="#fafafa" d="M384.1 242c1.5 6.7.9 13.5-2.5 19.7-1.6 2.8-3.4 5.6-5.1 8.4 15.8-1.4 30-7.5 43.9-14.5 2.9-1.4 3.8-3.4 3.1-6.3-14.4-7.2-28.1-15.8-44.6-16.1 1.8 3 4.4 5.7 5 8.8ZM308.1 261.3c5.8-7.9 4.2-17.5-3.9-22.9-7.2-4.7-15.4-6-23.8-6.9 9.6 14.8 8.7 28.9-2 43.1 3.8-.6 7.7-1 11.4-1.8 7.4-1.7 13.7-5.1 18.3-11.5Z"/><path fill="#eec481" d="M113.3 292.9c3.4.5 6.9 0 10.4 0-.4-5.1-.5-10.3-1.1-15.3-.9-8-6.9-12.6-12.8-16.5-5.7-3.8-10-3.5-13.3 1.3-.6 3.5-1.5 7-1.6 10.5-.3 11.6 7.1 18.2 18.4 19.9Z"/><path fill="#c6a46d" d="M215.9 283.4c0 .4-.1.7 0 1.1 0 1.6.9 3.2 2.6 4.1 2.2 1.2 4.4 2.3 6.8 3.1 9.8 3.3 19.8 5.6 30.3 5.2 3.2-.1 6.4.5 9.6.2 4.2-.4 8.3-1.3 12.5-1.9 7.3-1.1 14.6-1.8 21.4-5 3.2-1.5 5.9-3.4 7.5-6.2.3-.5.6-1 .8-1.6l.6-1.8c0-.3.1-.6.2-1-2.1 1.4-4 3.3-6.3 4.3-8.9 3.6-18.3 5.6-27.8 6.1-18.5.9-36.6-1.5-54.1-7.4-.5-.2-.9-.5-1.3-.8-.1 0-.2-.2-.4-.3-.3-.3-.6-.5-.9-.7-.4.5-.8 1.1-1 1.6-.2.4-.3.7-.3 1.1Z"/><path fill="#c6a46d" d="M217.3 280.6c.3.2.6.5.9.7-.3-.3-.6-.5-.9-.7ZM308 280.5l-.6 1.8.6-1.8ZM308.2 279.5c0 .3-.1.7-.2 1 0-.3.1-.6.2-1ZM307.4 282.3c-.2.6-.5 1.1-.8 1.6.3-.5.6-1 .8-1.6ZM92.5 292.1c.8 6.6 5.5 11.5 12 12.8 4.5.9 8.6-.4 12.6-2.3s6.1-5.2 6.6-9.6c-3.5 0-7 .5-10.4 0-11.3-1.7-18.7-8.3-18.4-19.9 0-3.5 1.1-7 1.6-10.5-3.8 3.4-6.3 7.5-5.8 12.9.5 5.6 1.2 11.2 1.8 16.8Z"/><path fill="#a95b11" d="M255.3 81.7c-.6 1.9-1.3 3.9-1.9 5.8-.2.6-.4 1.3-.6 1.9-.5 1.8-1.5 2.7-3.4 2.2-1.5 0-3 0-4.5-.2-1-.2-1.9-.9-2.8-1.3 0 .3.2.5.2.8s.2.5.3.8c3 6.5 6.1 13 9.1 19.5.8 1.7 1.6 3.4 2.6 5.5 5.7-6 10.9-11.5 16.2-17-3.1-3.4-6.4-6.8-9.4-10.4-2.1-2.4-3.9-5.1-5.8-7.6ZM242.1 90.1z"/><path fill="#76400d" d="M96.9 248.5c2.9-1.7 3.5-4.4 2.8-7.2-2.9-10.5-2.8-21.3-2.6-32-1.7-2.8-3.5-5.5-5.2-8.3-.3 0-.5.2-.8.3.4 6.2.9 12.3 1.2 18.5.2 4.1.7 8.3.5 12.4-.1 3.3-1.3 3.8-4.6 3.3-2.9-.4-5.7-.7-9.4-1.1 1.4 1.9 2.3 3 3 4.2 3.5 6.1 7.1 12.2 10.5 18.3.9 1.7 1.6 2.1 3.4.8.2-.1.4-.3.6-.4 1.5-.9 3.2-1.6 4.7-2.4-1.3-2.1-2.7-4.1-4.1-6.3Z"/><path fill="#76400d" d="M96.3 257.2c1.5-.9 3.2-1.6 4.7-2.4-1.6.8-3.3 1.4-4.7 2.4Z"/><path fill="#c6a46d" d="M228.5 384.6c-.4-.2-.8-.4-1.1-.6-4.3-3-8.6-6-12.9-9.1-2.2-1.5-4.5-3-6.5-4.7-1.2-1-2.3-1.6-3.6-1.7h-.4c-.4 0-.8 0-1.3.2-.3 0-.6.2-.9.3-.2 0-.3.1-.5.2 3.9 3.9 7.8 7.9 11.8 11.7 5.5 5.3 11.2 10.5 17.1 16 1.1-3.3 1.9-5.9 2.8-8.5 1.1-3.4 2.6-3.8 5-1.2 2.9 3.1 5.7 6.2 9 9.7 2.1-6.8 4.1-13.1 6.1-19.8h-4c-1.4 2.7-2.8 5.4-4.2 8.2-6.7-5.4-12.3-5.6-16.6-.7ZM204.1 368.5h.4-.4ZM340.2 306.6c5-2.7 10.4-2.9 15.8-2 1.5.2 2.6 1.1 3.4 2.2.2.3.4.6.6.8s.4.6.5.9c.4.6.7 1.2 1.1 1.7 3.8-.7 7.7-3 11.1 1.1.3.4 1 .4 1.5.5.8-1.8 2.3-2 4-1.6 2.8.6 5.6 1.2 8.6 1.9.1-.8.2-1.7.4-2.6.6-4.3-1.8-7.6-3.4-11.2-.9-2.1-2.2-2.5-4.1-1.7-.9.4-1.8.6-2.6.9-8.9 3.8-18.5 4.3-27.9 5.4H347c-2.2-.1-4.4-.7-6.7-1v4.6Z"/><path fill="#fafafa" d="M318.6 248.8c-2.2 1.3-3.7 3.2-3.7 6 0 1.2-.5 2.6-1 3.7-.8 1.5-.4 2.2.8 3.4 5.5 5.1 12.3 6.3 19.5 7-4.6-8.7-4.3-17.6-2.7-27.2-4.5 2.5-8.8 4.7-12.9 7.1ZM230.5 264.1c-3.1-5.6-3.8-11.6-2.8-17.7.5-2.8 1.7-5.5 2.6-8.3-10.4 3.5-18.8 10.1-28 16.1 6.7.7 12.4 3.3 17.9 6.2 3.5 1.8 7.1 3.5 10.6 5.2-.1-.5-.1-1.1-.4-1.6ZM230.9 265.7v.1-.1Z"/><path fill="#fafafa" d="M220.3 260.5c3.5 1.8 7.1 3.5 10.6 5.2-3.5-1.7-7.1-3.3-10.6-5.2Z"/><path fill="#f4c750" d="M133.7 42.2c-.2 2.9-.6 5.7-.4 8.6.4 7.4 1.6 14.9 1.5 22.3-.2 11.5 3.9 22.1 6.6 33 .2.8.6 1.6 1.1 2.2l.6.6c.8.7 1.9 1.1 3.2 1.2-.6-2.7-1.1-5.3-1.6-8s-1.1-5.3-1.7-8c-2.7-12.5-5.6-25-6-37.8 0-1.2 0-2.3-.1-3.5 0-2.3-.1-4.6-.2-6.9 0-2.4 0-4.7-.1-7.1 0-3.4 0-6.9-.1-10.3-.9 4.6-1.8 9.2-2.6 13.8Z"/><path fill="#f4c750" d="M146.2 110c-.6-2.7-1.1-5.3-1.6-8 .5 2.7 1.1 5.3 1.6 8ZM136.6 45.8c0 2.3 0 4.6.2 6.9 0-2.3-.1-4.6-.2-6.9ZM136.5 38.7c0-3.4 0-6.9-.1-10.3 0 3.4 0 6.9.1 10.3ZM143 108.8l-.6-.6.6.6ZM146.2 110c-1.3 0-2.3-.5-3.2-1.2.8.7 1.9 1.1 3.2 1.2ZM146.2 110z"/><path fill="#d39a07" d="M355.4 128.3c3.1.3 4.7-1.7 5.8-4.2 1.6-3.8 3.2-7.7 4.9-11.4 1.6-3.6 3-7.3 4.2-11 .6-1.9 1.1-3.7 1.6-5.6 1-3.8 1.8-7.6 2.4-11.4 1-5.8 1.7-11.6 2.2-17.4-.3-1.1-.5-2.2-.8-3.2-.8 6.1-2.3 11.9-4.1 17.7-1.4 4.5-3 8.9-4.6 13.4-.6 1.7-1.2 3.4-1.8 5.2-.2.7-.5 1.4-.7 2.1-.2.7-.5 1.4-.7 2.1-.6 1.7-1.2 3.5-1.8 5.2-.2.7-.5 1.4-.8 2.1s-.5 1.4-.8 2c-1.9 4.7-4.2 9.3-7.4 13.4.7.4 1.4 1.1 2.2 1.2Z"/><path fill="#d39a07" d="M375.8 64c-.8 6.1-2.3 11.9-4.1 17.7 1.8-5.8 3.3-11.7 4.1-17.7Z"/><path fill="#f0dcbe" d="M231.1 214.7c3.8-.6 7.5-2.1 11.3-2.2 7.1-.2 14.2.3 21.3.4 8.9.1 17.4 2.3 25.9 4.6 1.4.4 2.4 2.2 3.5 3.3.4.2.8.3 1.2.5.8.3 1.6.7 2.4 1.1.5.2.9.4 1.4.6.5.2 1.1.5 1.6.7.3.1.6.3.9.4-.3-.8-.4-1.4-.8-1.9-2.9-3.8-6.4-7-11.1-8.4-17.5-5.3-35.2-7.9-53.2-2.8-.7.2-1.3.4-2 .7s-1.3.5-2 .8c-.5.2-1 .4-1.6.7-.4.2-.7.3-1.1.5-.4.2-.8.3-1.3.5 1.2.3 2.4.9 3.5.7ZM228.9 213.5c-.4.2-.8.3-1.3.5.4-.2.8-.3 1.3-.5Z"/><path fill="#f0dcbe" d="M298.1 222.9c-.5-.2-.9-.4-1.4-.6.5.2.9.4 1.4.6ZM299.7 223.6c-.6-.2-1.1-.5-1.6-.7.5.2 1.1.5 1.6.7ZM230 213c.5-.2 1-.4 1.6-.7-.5.2-1 .4-1.6.7ZM229.3 226.1c7.5-.6 15-1.9 22.5-1.9 9.1 0 18.2 1 27.2 1.5 7.7.4 15.1 2.2 22.1 5.5.8.4 1.9-.1 2.9-.2-5-4.6-11.3-6.7-17.7-8-15.6-3.2-31.4-3.1-47.1-.4-1.3.2-2.6.5-3.9.7-3.9.7-7.8 1.6-11.8 2.3 1.9.2 3.8.6 5.7.5Z"/><path fill="#a95b11" d="M215.3 75.5c-.6.7-1.2 1.4-1.7 2.1-3.4 5.8-6.7 11.6-10 17.4-1.1 2-2.4 3.3-4.8 1.6-2.6.4-4.7-.9-5.5-3.9-.7-2.6-1-5.3-1.4-8-.1 1.3-.5 2.7-.5 4V90c1 5 2.3 9.9 3.5 14.8.7 3 1.5 5.9 2.3 9.1 4.2-6.9 8.4-13.4 12.2-20 2.8-4.9 5.1-10 7.6-15.1-.6-1.1-1.2-2.2-1.8-3.4Z"/><path fill="#d39a07" d="M321.3 123.5c.4-.7.9-1.4 1.4-2.1 6.9-9.6 13.3-19.5 16.8-30.9.2-.7 1-1.1 1.6-1.7v-1.1h-.2v-.3c-.3-.6-.6-1.1-1-1.9-.2-.3-.3-.6-.5-1 0-.2-.2-.4-.3-.6-5.1 8.8-9.9 16.9-14.5 25.2l-2.1 3.6c-3.1 5.2-6.4 10.1-10.8 14.3 5.1 1.7 6.5 1.2 9.5-3.5Z"/><path fill="#d39a07" d="M339.4 84.5c.2.4.4.7.5 1-.2-.3-.3-.6-.5-1Z"/><path fill="#c6a46d" d="M386.2 336.1c-1.8.2-3.6.4-5.3.5h-.5c-4.6.4-9.1.8-13.7 1.2.4.3.7.7 1.1.8 5.6 1.3 11.2 1.9 17 1.2 8.5-.9 17-1.9 25.6-2.6 3.8-.3 5.2 1 6.5 4.7.3.9.7 1.7 1 2.6 2.4-2.5 1.9-5.6 1.7-8.6-.4-6.2-4.8-6.6-9-4.9-1.3.5-2.5 1.4-3.8 1.6-5.9 1.1-11.8 2.3-17.8 3-.9.1-1.9.2-2.8.3ZM380.3 336.7h.5-.5Z"/><path fill="#f4c750" d="M375.8 64c.3 1.1.5 2.2.8 3.2 1.2 3.5 2.7 6.9 3.7 10.4 1.6 5.8 3 11.6 4.1 17.5.9 5 1 10.1 1.9 15.1 2.3 12.8 2.5 25.6 1.2 38.6-.1 1.4-.2 2.8 0 3.9.4 2 1.5 3.5 4 4.6-.5-21.3-1-42.7-5.3-63.4-.6-3-1.3-5.9-2.1-8.9-2-7.8-4.7-15.6-8.2-23.2 0 .7 0 1.4-.1 2.1Z"/><path fill="#f4c750" d="M375.8 64c0-.7 0-1.4.1-2.1 0 .7 0 1.4-.1 2.1Z"/><path fill="#d39a07" d="M261.6 122.5c2.4-2.2 4.8-4.4 6.8-6.8 4.6-5.5 9.2-11 13.3-16.9 2.1-2.9 3.3-6.5 4.8-9.8-9.7 9.9-19.3 19.8-29.1 29.6-1 1-2.4 1.7-3.7 2.5l-.6.3c2 3.2 5.6 3.7 8.4 1.1ZM253.7 121l-.6.3.6-.3Z"/><path fill="#f4c750" d="M225.2 76.9c6.5 12.1 13.1 24.2 19.5 36.3 1.3 2.5 2.6 4.9 5.9 5.2-4.9-10.2-9.6-20.5-14.6-30.7-3-6.1-6.4-12-9.6-18-.4 0-.7-.1-1.1-.2-.6 1.8-1.3 3.6-1.9 5.3.6.7 1.3 1.3 1.7 2.1Z"/><path fill="#f0dcbe" d="M370.5 209.6H368c-1.6.1-3.1.3-4.7.4-.4 0-.8 0-1.2.1h-.6c-.4 0-.8 0-1.1.1 1.1.6 2.1 1.7 3.2 1.8 3.9.4 7.9.3 11.9.7 5.8.6 11.7 1.1 17.4 2.4 5.9 1.3 10.8 4.9 14.9 9.4 1.5.8 3 1.6 4.7 2.5.8-2.5.7-4.5-1-5.7-4-2.8-8-6-12.5-8-9-4-18.7-3.9-28.4-3.9Z"/><path fill="#f0dcbe" d="M362.1 210.3c.4 0 .8 0 1.2-.1-.4 0-.8 0-1.2.1ZM361.5 210.4c-.4 0-.8 0-1.1.1.4 0 .8 0 1.1-.1Z"/><path fill="#c6a46d" d="M192.1 339c-.7-3.9-3.6-5.8-6.7-4.2.9 2.6 2.3 5.1 2.7 7.7 1.7 10.1 3 20.3 4.5 30.4.4 2.4.9 4.9 1.4 7.3h.6c1.2-3.5 2.4-6.9 3.7-10.4-.4-.7-1-1.3-1.2-2-1.7-9.5-3.4-19.1-5-28.7Z"/><path fill="#d39a07" d="M203.2 121.3c1.2-1.3 2-3 2.9-4.6 7.1-11.3 12.1-23.6 16-36.4.3-1.1.3-2.4.4-3.6-.4.8-.9 1.6-1.3 2.4-2.9 5.7-5.7 11.4-8.8 17-1.2 2.1-2.4 4.2-3.5 6.3-3.6 6.3-7.2 12.5-10.9 18.7 1.4 1.6 3.6 1.9 5.1.2ZM159.7 113.7c3.2-6.5 6.4-12.9 9.4-19.4 2.3-5 4.3-10.2 6.3-15.3.2-.5 0-1.1 0-1.7-1.6 2.4-3.3 4.7-4.7 7.1-6.2 10.8-12.4 21.6-18.6 32.3 3.5 1.1 6 .1 7.6-3.1Z"/><path fill="#c6a46d" d="M226.3 191.8c.5 0 .9.2 1.4.4 6.9 3.4 13.7 6.9 20.7 10.1 1.5.7 3.6 0 5.4 0-7.5-6.6-15.4-12.5-24.4-17.3-.9 1.8-1.8 3.5-2.6 5.2-.3.6-.6 1.1-.8 1.6h.5Z"/><path fill="#f4c750" d="M181.6 72.4c2 11.8 4 23.7 6 35.5.6 3.6 2.7 6.1 5.6 6.6-1.5-6.9-3.2-13.7-4.6-20.6-1.6-7.5-3.1-14.9-4.6-22.4l-1.5-7.5h-1c-.3 1-.7 2-1 3.1.4 1.7.8 3.5 1.1 5.2ZM184.1 71.5l-1.5-7.5 1.5 7.5Z"/><path fill="#f4c750" d="M181.6 64.1c-.3 1-.7 2-1 3.1.3-1 .7-2 1-3.1Z"/><path fill="#f0dcbe" d="M374.9 223c1 .5 1.9 1.4 2.9 1.5 11.5.8 22.1 4.5 32.4 9.4 2.8 1.3 5.4 3.2 5.8 6.8.2.1.4.3.6.4 2 1.2 4 2.5 6 3.7.1-.4.4-.8.2-1.1-1.8-4.4-4.1-8.5-8.3-11.1-2.3-1.4-4.6-2.6-7-3.7-10.2-4.7-21.1-6.7-32.7-6Z"/><path fill="#f0dcbe" d="M407.6 228.9c-10.2-4.7-21.1-6.7-32.7-6 11.6-.8 22.5 1.2 32.7 6ZM416.6 241.1c-.2-.1-.4-.3-.6-.4.2.1.4.3.6.4 2 1.2 4 2.5 6 3.7-2-1.2-4-2.4-6-3.7ZM416 240.7ZM416 240.7Z"/><path fill="#c87d37" d="M216.1 191.3c-4.8-1.4-9.6-2.8-14.5-3.9-3.6-.8-6.5.9-7.3 3.6 7.7 2.4 15.4 4.8 23.4 7.2.7-1.5 1.6-3.4 2.5-5.3-1.4-.6-2.7-1.2-4.1-1.6ZM236.6 181.1c-1.7-.6-3.8.1-5.8.3 7.6 5 15.3 10 23.2 15.1.2-.6.3-1.2.5-1.8.5-1.8 1.1-3.7 1.6-5.6-6.5-2.7-12.9-5.6-19.5-8Z"/><path fill="#c6a46d" d="M175.8 289.4c1.1-3.3.9-5.2-1.5-6.5-.6 2.4-1.1 4.9-2 7.1-3.4 8.7-6.9 17.3-10.3 26-.4 1.1-.6 2.3-.9 3.5l.6.3c1.9-1.2 3.8-2.5 5.7-3.7 2.8-8.9 5.4-17.9 8.4-26.7ZM313.8 203.9h1.2c.8 0 1.6 0 2.2-.2 1.7-.6 3.2-1.8 4.7-2.9 1.9-1.5 3.4-1.8 5.5.2 3.5 3.3 7.5 3.6 10.6 1.5 4.5-2.9 9-5.6 14.6-3.1.5.2 1.1 0 1.7 0-1.2-2.2-2.3-4.5-3.5-6.7-4.7 2.9-8.9 5.5-13.2 8-4.5 2.6-6.2 2.2-9.4-1.9-1.5-1.9-2.7-3.9-4.3-6.2-1.9 1.9-3.8 3.8-5.7 5.6-1.9 1.8-3.7 3.7-5.6 5.5h1.2ZM315 204h-1.2 1.2ZM312.6 203.9h1.2-1.2ZM270.5 196.1c5.1 2.3 10 4.9 15.1 7.3 1 .4 2.1.4 3.2.6-1.3-1-2.5-2-3.8-2.9-4.2-3.2-8.3-6.5-12.6-9.4-3.4-2.3-7.2-4-11.1-6.1-.2.6-.3 1.2-.5 1.7s-.3 1.1-.4 1.6c-.3 1-.5 1.9-.8 2.8 3.6 1.5 7.3 2.8 10.9 4.5Z"/><path fill="#c87d37" d="M292.5 193.1c-8-3.7-15.9-7.6-24-11.1-1.1-.5-2.9.5-4.3.9 6.9 4 13.9 7.9 20.7 12.1 4.1 2.5 3.9 2.7 7.7-.4.1 0 .2-.2.3-.3l.3-.3c-.2-.3-.4-.7-.7-.8ZM256.7 75.7c-.1.6-.2 1.1-.4 1.6-.4 1.6-.7 3-1 4.3 1.9 2.6 3.7 5.2 5.8 7.6 3 3.5 6.2 6.9 9.4 10.4.7-.5 1.4-1.1 2.1-1.7-5.3-7.5-8.7-15.9-16-22.3Z"/><path fill="#f4c750" d="M343.2 104c.2 3.8-.2 7.6.1 11.3.5 5.4.6 8.1 5.5 9.1-.4-2.8-.7-5.7-1.1-8.5-.6-4.7-1.2-9.4-2-14.1-.4-2.1-1.2-4.1-2.1-6.1-.2-.4-.4-.8-.5-1.2-.4-.8-.7-1.6-1-2.4.4 3.9.9 7.8 1.1 11.8ZM289.6 87.9c1.4 3.3 2.7 6.7 3.9 10 2.7 7.2 5.3 14.3 8 21.5 1 2.7 3.1 4.2 6.1 4.4-.2-.7-.5-1.4-.8-2.1-4.9-10.5-9.8-20.9-14.6-31.4-.8-1.8-1.6-3.6-2.6-5.8-.1.2-.2.4-.3.5-.2.3-.4.6-.5.8 0 0-.1.2-.2.3 0 .1-.2.3-.2.4.4.4 1 .8 1.2 1.3Z"/><path fill="#f4c750" d="M289.3 85.1c.1-.2.2-.3.3-.5-.1.2-.2.4-.3.5ZM288.6 86.2s.1-.2.2-.3c0 0-.1.2-.2.3Z"/><path fill="#c6a46d" d="M177 322.4c.3-3.2-.7-5.4-3.9-6.7-.2 3.3-.4 6.6-.7 9.9-.6 6.5-1.2 12.9-1.8 19.4.3 0 .7.2 1 .3 1.3-1.6 2.6-3.2 3.9-4.9.5-6 .9-12.1 1.5-18.1Z"/><path fill="#c87d37" d="m392.2 187.4-.6 10.5c1.2.6 2.3 1.2 3.9 2 1-7.6 3.3-15 1.8-23.3-.2.2-.5.3-.7.5-1.5 1-2.8 1.9-4.1 2.7-.1 2.5-.2 5.1-.3 7.6Z"/><path fill="#a95b11" d="M309.5 107.8c-.5-.6-1-1.3-1.5-1.9-1.5-1.9-3-3.7-4.5-5.6 0 1.2-.4 2.6-.4 3.8v.3c0 .3 0 .6.2.8 1.7 4.3 3.9 8.5 5.9 12.8.6 1.3 1.3 2.5 2.3 4.5.6-1 1.1-1.8 1.6-2.7.3-.6.7-1.1 1-1.6l.9-1.5c.2-.2.3-.5.5-.7-2-2.7-3.9-5.4-6-8.1ZM303.1 104.4v-.3.3Z"/><path fill="#c87d37" d="M397.5 377.4c3.9 4.7 7.5 9.5 9.4 15.3.3.8.5 1.7.7 2.5.4.3.8.7 1.2 1 0-1.5-.2-3-.4-4.4 0-.5-.1-1-.2-1.5-.1-1-.3-1.9-.5-2.9-.9-4.8-2.4-9.6-4.2-14.2-.7.1-1.3.2-1.9.4-1.9.3-3.7.7-5.5 1 .5.9.8 2 1.5 2.8Z"/><path fill="#c87d37" d="M408.8 396.3c0-1.5-.2-3-.4-4.4.2 1.5.3 2.9.4 4.4ZM407.7 387.5c.2 1 .4 1.9.5 2.9-.1-1-.3-1.9-.5-2.9ZM406.9 392.7c.3.8.5 1.7.7 2.5-.2-.9-.5-1.7-.7-2.5Z"/><path fill="#c6a46d" d="M362.9 199.5c5.2-1.7 10.2-3.5 13.8 2.7l.2.2c2.6 1.1 4.7 3.7 8 2.1-1-.9-2.1-1.6-3-2.6-2.2-2.7-4.3-5.5-6.6-8.1-.4-.5-1.8-.8-2.4-.5-4.2 2-8.4 4.2-12.5 6.3.8 0 1.7.2 2.5 0ZM292.9 202.9c2.3-1.4 4.6-1.5 7.1-.2 1.6.9 3.4 1.5 5.2 1.9 1.3.3 2.8 0 4.2-.2-3.5-3.4-6.9-6.8-10.4-10.2-2.9 2.3-5.2 4.2-7.7 6.3.3.5.6.9.8 1.3s.5.8.8 1.1Z"/><path fill="#76400d" d="M378.5 404.2c-3-.6-5.6.6-6.9 3.1 7.7 1.4 15.4 2.7 23.3 4.1v-3.5c-5.5-1.2-10.9-2.5-16.4-3.7ZM394.9 409.9v-2 2Z"/><path fill="#c87d37" d="m304.9 96.2-.6.6c-.3 1.2-.6 2.3-.8 3.5 1.5 1.9 3 3.7 4.5 5.6.5.6 1 1.3 1.5 1.9 2.1 2.7 4 5.4 6 8.1l1.6-1.6c.2-.2.3-.4.5-.6 1-1.1 1-2.1-.2-3.3-4.2-4.7-8.3-9.5-12.5-14.3ZM304.9 96.2l-.6.6.6-.6-.6.6.6-.6Z"/><path fill="#c87d37" d="M303.5 100.3c1.5 1.9 3 3.7 4.5 5.6-1.5-1.9-3-3.7-4.5-5.6Z"/><path fill="#c6a46d" d="M178.5 238.3c.6-.9.9-2.1 1.3-3.2-7.1 5.9-12.7 12.9-17.5 21.4 2.1-.4 3.7-.7 5.3-.9.5-1.1.8-2.3 1.4-3.3 3.1-4.7 6.3-9.3 9.4-14Z"/><path fill="#c87d37" d="M244.9 91.4c1.5.3 3 .2 4.5.2-1-1.7-1.9-3.6-3.1-5.2-2.2-3-4.5-5.8-6.8-8.6-.7-.9-1.7-1.5-2 .4 1.1 3.2 2.3 6.5 3.4 9.7.2.4.4.7.6 1.1.2.3.4.7.6 1.1.9.5 1.9 1.2 2.8 1.3ZM240.9 87.9ZM241.5 89ZM242.1 90.1zM242.1 90.1ZM401.6 210.1c.6.4 1.3.7 2.1 1.2.5.3 1.1.6 1.8 1 .7-5.9 1.4-11.1 2-16.4-.3 0-.6-.2-.9-.3-1.1.8-2.3 1.5-3.4 2.3-.2.2-.4.3-.6.5-.2 1.1-.6 2.2-.7 3.4-.2 2.8-.2 5.6-.3 8.3ZM402.6 198.3z"/><path fill="#c87d37" d="M401.6 210.1c.6.4 1.3.7 2.1 1.2-.8-.5-1.5-.8-2.1-1.2Z"/><path fill="#c6a46d" d="M407.4 359.5c1.8 1.6 1.6 3.1.5 4.9l-.3.6-.9 1.8h1.1c.7-.4 1.7-.7 2-1.3 1.3-2.5 3.6-5.2 3.4-7.7 0-.3 0-.7-.2-1 0-.2-.2-.4-.3-.6-.1-.2-.3-.4-.5-.6-1.2-1.3-3.5-2.1-5.4-2.5-1 2.3-1.3 4.6.7 6.4ZM412.2 355.6Z"/><path fill="#c6a46d" d="m412.7 356.2.3.6c0-.2-.2-.4-.3-.6ZM407.6 365l-.9 1.8.9-1.8ZM216.6 203c-4.8-3.3-10-5.3-15.9-5.7 3 2.4 3 2.7.7 5.5 3.6.4 7.2.9 10.9 1.1 1.4 0 2.9-.6 4.3-.9ZM165.7 281.3c0-.3.1-.5.2-.8.1-.4.3-.8.4-1.1 2.7-5.1 5.5-10.1 8.1-15.3.6-1.1.2-2.6.3-4-4.5 7.6-9 15.1-13.5 22.7.2.2.5.4.7.6 1.1-.3 2.2-.6 3.4-.9l.3-1.2Z"/><path fill="#f0dcbe" d="M389.9 323c2.9 2.3 5.6 4.7 8.3 7.1 1.2-.2 2.3-.3 4-.5-1.9-3.1-4.2-5.4-6.8-7.2-.6-.5-1.3-.9-2-1.3s-1.4-.8-2-1.1c-.3-.2-.7-.4-1-.5-1.1-.5-2.1-1-3.2-1.4-.2 2.3 1.1 3.7 2.8 5Z"/><path fill="#c87d37" d="M193.3 92.8c.8 3 2.9 4.3 5.5 3.9-1.6-5.3-3.2-10.7-4.8-16-.2 0-.4 0-.6-.1-.5 1.4-1.1 2.8-1.6 4.2.5 2.7.7 5.4 1.4 8ZM388.7 196.5c-3.5-3.6-6.6-8.1-12.7-7.5 1.5 1.7 2.9 3.4 4.4 5.1 1.5 1.7 3 3.4 4.5 5 .5.5 1.5.9 2.2.8h.4c.9-.3 1.7-.8 2.6-1.2-.5-.7-.8-1.5-1.4-2ZM357.7 188.2c-1.9-2-4.1-1.7-6.2.3 2 2.5 4.1 5.1 6.4 7.9 1.2-.8 2.6-1.8 4-2.7-1.4-1.8-2.6-3.8-4.1-5.5ZM328.3 188.8c-.5-.2-1.3.2-1.9.3 1.6 2.5 3.1 5 4.7 7.5.4.7.9 1.2 1.3 1.5.4.3.8.4 1.2.4h.6c.6-.1 1.1-.5 1.8-1-1.4-3.9-4.1-6.8-7.8-8.6ZM334.3 198.4h-.6.6Z"/><path fill="#c87d37" d="M333.7 198.5c-.4 0-.8-.2-1.2-.4.4.3.8.4 1.2.4Z"/><path fill="#76400d" d="M408.8 396.3c-.4-.3-.8-.7-1.2-1-1.4-.5-2.8-1-4.2-1.4-1.2-.3-2.3-.4-3.2-.1-1 .3-1.8.9-2.5 2 2.7 1 5.4 2.1 8.3 3.2.9.4 1.9.7 2.9 1.1v-3.8Z"/><path fill="#76400d" d="M397.7 395.8c2.7 1 5.4 2.1 8.3 3.2-2.8-1.1-5.5-2.1-8.3-3.2ZM408.8 396.3v.9-.9ZM400.2 393.8c-1 .3-1.8.9-2.5 2 .7-1.1 1.6-1.7 2.5-2ZM397.7 395.8zM408.8 396.3c-.4-.3-.8-.7-1.2-1 .4.3.8.7 1.2 1ZM408.8 396.3z"/><path fill="#c87d37" d="M308 193.5c-2.2-2.7-4-3.4-7.2-2.3 3.3 2.9 6.6 5.7 10 8.7.6-.7 1.1-1.4 1.6-2-1.5-1.5-3.1-2.8-4.4-4.4Z"/><path fill="#a95b11" d="M398.8 206.3c.8 1.3 2 2.5 2.8 3.8 0-2.8.1-5.6.3-8.3 0-1.2.4-2.3.7-3.4-2.9.5-5 2.3-4.7 5.7 0 .8.4 1.6.9 2.3Z"/><path fill="#a95b11" d="M398.8 206.3c.8 1.3 2 2.5 2.8 3.8-.8-1.3-2-2.5-2.8-3.8Z"/><path fill="#c87d37" d="M218.6 69c-.3.6-.6 1.1-.9 1.7-.8 1.7-1.6 3.3-2.4 4.9.6 1.1 1.2 2.2 1.8 3.4.9-1.9 1.8-3.8 2.8-5.7.9-1.8.4-3.1-1.3-4.3Z"/><path fill="#c87d37" d="M215.3 75.5c.6 1.1 1.2 2.2 1.8 3.4-.6-1.1-1.2-2.2-1.8-3.4Z"/><path fill="#a95b11" d="M237.5 78.2c-.3 1.1-1.1 2.4-.7 3.1.3.6.6 1.1.9 1.7 1 1.7 2.1 3.3 3.2 4.9-1.1-3.2-2.3-6.5-3.4-9.7Z"/><path fill="#14120d" d="M225.9 68.6c-.2.3-.3.6-.5.8.4 0 .7.1 1.1.2-.2-.3-.4-.7-.5-1Z"/><path fill="#14120d" d="M226.5 69.6c-.2-.3-.4-.7-.5-1-.2.3-.3.6-.5.8.2-.3.3-.6.5-.8.2.3.4.7.5 1ZM182.6 64c-.1-.3-.3-.6-.4-.9-.2.3-.4.7-.6 1h1Z"/><path fill="#14120d" d="M182.2 63.1c-.2.3-.4.7-.6 1 .2-.3.4-.7.6-1ZM182.6 64c-.1-.3-.3-.6-.4-.9.1.3.3.6.4.9ZM136.6 27.2ZM136.5 27.2ZM341.4 89.3c0 .1.2.2.2.3 0-.2-.1-.4-.2-.5v.2ZM341.5 89.1z"/><path fill="#f0dcbe" d="M423.1 244.6v-.2l-.3.3c.1 0 .2 0 .3-.1ZM422.7 244.8c.1 0 .2 0 .4-.1-.1 0-.2 0-.3.1ZM422.6 244.9v-.1.1ZM422.6 244.8v-.1ZM422.6 244.8Z"/><path fill="#fafafa" d="M231.3 265.9v-.2h-.3s.2.1.3.2ZM230.9 265.7h.1ZM231 265.8h-.1.1ZM231 265.8s.2.1.3.2c0 0-.2-.1-.3-.2Z"/><path fill="#598b42" d="m393.6 174.1-.2.1.2.1v-.2zM140.1 406.2l.1-.2h-.2l.1.2z"/><path fill="#14120d" d="M340.9 87.6h.2l-.1-.2v.2Z"/><path fill="#14120d" d="M340.9 87.4s0 .2.1.3c0-.1 0-.2-.1-.3ZM320.3 308.4c.7.1 1.6-.8 2.4-1.2-.5-.8-.9-2-1.6-2.2-3.2-1-6.4-1.7-9.6-2.4-6.4.2-13.6 8.4-12.4 14.6.1.7.9 1.6 1.5 1.6s1.6-.6 1.8-1.2c.8-1.8 1.3-3.8 2.1-5.7 2.2-5 3.6-5.8 9-5 2.3.4 4.5 1.2 6.8 1.5ZM360.4 308.5c-.2-.3-.4-.6-.5-.9-.2-.3-.4-.6-.6-.8-.8-1.1-1.8-1.9-3.4-2.2-5.4-.9-10.8-.7-15.8 2-.2 2.8.2 3.1 4.2 2.5 3.4-.3 6.9-.7 10.3-.8.3 0 .6.2.9.5l.9.9c.5.9 1 1.9 1.5 2.8.2.5.5.9.8 1.4s.5.9.8 1.3c.4.7 1.6.9 2.4 1.3.3-.9 1-1.8.9-2.6-.1-.8-.4-1.5-.7-2.3-.2-.4-.4-.9-.6-1.3-.4-.6-.7-1.2-1.1-1.7Z"/><path fill="#14120d" d="M362.1 311.6c-.2-.4-.4-.9-.6-1.3.2.4.4.9.6 1.3ZM361.5 310.2c-.4-.6-.7-1.2-1.1-1.7.4.6.7 1.2 1.1 1.7ZM359.9 307.6c.2.3.4.6.5.9-.2-.3-.4-.6-.5-.9ZM359.3 306.8c.2.3.4.6.6.8-.2-.3-.4-.6-.6-.8Z"/><path fill="#100e0c" d="M321.9 315c-2.7-1.4-5.7-2.4-8.6-3.2-.8-.2-2.5.5-2.9 1.3-.4.8 0 2.6.7 3.1 2.7 1.8 5.6 3.2 8.7 4.8 1.6-1.1 3.3-1.7 3.6-2.7.3-.9-.6-2.8-1.6-3.3Z"/><path fill="#14120d" d="M339.4 318.4c.3.8 1.7 1.3 2.9 2.1 2.8-1.2 5.6-2.3 8.2-3.6 1.5-.7 2-2 1.3-3.7-.8-1.8-2.1-2.4-3.8-1.7-2.6 1.1-5.1 2.4-7.5 4-.7.5-1.3 2.2-1 3Z"/><path fill="#c6a46d" d="M355.6 308.7c-.3-.3-.6-.5-.9-.5-3.4.1-6.9.5-10.3.8.7.4 1.4 1 2.1 1 3.3 0 6.7-.3 10-.4-.3-.2-.6-.6-.9-.9Z"/><path fill="#fafafa" d="M267.4 250.1c3.2-.1 5.3-2.6 5.2-5.9-.2-3.6-2.1-5.5-5.6-5.4-4.6.1-6.6 1.6-6.5 5 0 3.7 3 6.4 6.9 6.3ZM252 262.9c2.7.1 4.9-2 4.9-5.2 0-1.4-.8-2.8-1.2-4.2-.8-2.6-2.3-4-5.1-3.4-2.9.6-4.7 2.9-4.8 5.7 0 3.6 2.8 6.9 6.1 7ZM362.3 253c4.1 0 6.7-2.6 6.8-6.7 0-3.4-3.2-6.7-6.7-6.8-4.8 0-7.5 2.2-7.5 6.2 0 4.1 3.1 7.3 7.4 7.3ZM350.5 263.5c2.3 0 3.2-1.5 3.3-3.3 0-3.5-1.9-5.7-4.5-5.6-2.2 0-3.9 1.9-3.9 4.2 0 2.7 2.4 4.9 5.1 4.8Z"/></svg>